<svg width="40" height="40" viewBox="0 0 40 40" fill="none" xmlns="http://www.w3.org/2000/svg">
<path fill-rule="evenodd" clip-rule="evenodd" d="M13.3286 7.0718C9.96115 7.0718 6.72954 8.41374 4.34898 10.8002C1.96842 13.1866 0.63089 16.4226 0.63089 19.7982V19.8603H0.5V7H13.3286V7.0718ZM3.49301 19.8603C3.49765 19.8388 3.49792 19.8194 3.49792 19.7982C3.49792 17.1834 4.53141 14.6773 6.37423 12.8292C8.21677 10.9806 10.719 9.94258 13.3286 9.94258V10.3608H13.3239C10.8171 10.3608 8.41311 11.3593 6.64064 13.1377C4.86818 14.9139 3.87205 17.3249 3.87205 19.8374V19.8603H3.49301ZM6.73881 19.8603V19.8374C6.73881 18.0859 7.43116 16.4046 8.66562 15.1665C9.90035 13.9281 11.5793 13.2307 13.3239 13.2307H13.3286V13.6212C13.3098 13.6193 13.2912 13.6193 13.277 13.6193C9.8818 13.6193 7.12712 16.3782 7.12712 19.7831C7.12712 19.8097 7.12712 19.8342 7.13175 19.8603H6.73881ZM9.98924 19.8603V19.7831C9.98924 17.9644 11.4626 16.4898 13.277 16.4898H13.3286V19.8603H9.98924ZM13.3286 32.9277V33H0.5V20.1394H0.63089V20.2016C0.63089 23.5768 1.96842 26.8134 4.34898 29.1998C6.72954 31.586 9.96115 32.9277 13.3286 32.9277ZM3.49301 20.1394H3.87205V20.1626C3.87205 22.6751 4.86818 25.0863 6.64064 26.8626C8.41311 28.6402 10.8171 29.6395 13.3239 29.6395H13.3286V30.0577C10.719 30.0577 8.21677 29.0194 6.37423 27.1708C4.53141 25.3222 3.49792 22.8161 3.49792 20.2016C3.49792 20.18 3.49765 20.1607 3.49301 20.1394ZM6.73881 20.1394H7.13175C7.12712 20.1658 7.12712 20.1903 7.12712 20.2164C7.12712 23.6215 9.8818 26.3804 13.277 26.3804C13.2912 26.3804 13.3098 26.3804 13.3286 26.3788V26.7687H13.3239C11.5793 26.7687 9.90035 26.0719 8.66562 24.8335C7.43116 23.5951 6.73881 21.9143 6.73881 20.1626V20.1394ZM9.98924 20.1394H13.3286V23.5102H13.277C11.4626 23.5102 9.98924 22.0354 9.98924 20.2164V20.1394ZM26.4328 7.0718C23.0657 7.0718 19.8338 8.41374 17.4535 10.8002C15.0729 13.1866 13.7354 16.4226 13.7354 19.7982V19.8603H13.6045V7H26.4328V7.0718ZM16.5975 19.8603V19.7982C16.5975 17.1834 17.6359 14.6773 19.4785 12.8292C21.3213 10.9806 23.8232 9.94258 26.4328 9.94258V10.3608H26.4282C23.9214 10.3608 21.5176 11.3593 19.7452 13.1377C17.9724 14.9139 16.9763 17.3249 16.9763 19.8374V19.8603H16.5975ZM19.8387 19.8603V19.8374C19.8387 18.0859 20.5354 16.4046 21.7701 15.1665C23.0049 13.9281 24.6838 13.2307 26.4282 13.2307H26.4328V13.6212C26.4143 13.6193 26.3955 13.6193 26.3816 13.6193C22.9814 13.6193 20.2314 16.3782 20.2314 19.7831V19.8603H19.8387ZM23.0938 19.8603V19.7831C23.0938 17.9644 24.5668 16.4898 26.3816 16.4898H26.4328V19.8603H23.0938ZM39.5 7.0718C36.1326 7.0718 32.901 8.41374 30.5204 10.8002C28.1401 13.1866 26.807 16.4226 26.807 19.7982V19.8603H26.6714V7H39.5V7.0718ZM29.6693 19.8603V19.7982C29.6693 17.1834 30.7028 14.6773 32.5503 12.8292C34.3882 10.9806 36.8904 9.94258 39.5 9.94258V10.3608C36.9932 10.3608 34.5845 11.3593 32.8167 13.1377C31.0396 14.9139 30.0481 17.3249 30.0481 19.8374V19.8603H29.6693ZM32.9102 19.8603V19.8374C32.9102 18.0859 33.6026 16.4046 34.8373 15.1665C36.0767 13.9281 37.751 13.2307 39.5 13.2307V13.6212C39.4812 13.6193 39.4673 13.6193 39.4485 13.6193C36.0532 13.6193 33.2985 16.3782 33.2985 19.7831C33.2985 19.8097 33.2985 19.8342 33.3032 19.8603H32.9102ZM36.1607 19.8603C36.1653 19.8342 36.1656 19.8097 36.1656 19.7831C36.1656 17.9644 37.634 16.4898 39.4485 16.4898H39.5V19.8603H36.1607ZM26.4328 32.9277V33H13.6045V20.1394H13.7354V20.2016C13.7354 23.5768 15.0729 26.8134 17.4535 29.1998C19.8338 31.586 23.0657 32.9277 26.4328 32.9277ZM16.5975 20.1394H16.9763V20.1626C16.9763 22.6751 17.9724 25.0863 19.7452 26.8626C21.5176 28.6402 23.9214 29.6395 26.4282 29.6395H26.4328V30.0577C23.8232 30.0577 21.3213 29.0194 19.4785 27.1708C17.6359 25.3222 16.5975 22.8161 16.5975 20.2016V20.1394ZM19.8387 20.1394H20.2314V20.2164C20.2314 23.6215 22.9814 26.3804 26.3816 26.3804C26.3955 26.3804 26.4143 26.3804 26.4328 26.3788V26.7687H26.4282C24.6838 26.7687 23.0049 26.0719 21.7701 24.8335C20.5354 23.5951 19.8387 21.9143 19.8387 20.1626V20.1394ZM23.0938 20.1394H26.4328V23.5102H26.3816C24.5668 23.5102 23.0938 22.0354 23.0938 20.2164V20.1394ZM26.6714 32.9277C30.0388 32.9277 33.2658 31.586 35.6464 29.1998C38.0267 26.8134 39.3645 23.5768 39.3645 20.2016V20.1394H39.5V33H26.6714V32.9277ZM36.5021 20.1394V20.2016C36.5021 22.8161 35.464 25.3222 33.6211 27.1708C31.7786 29.0194 29.2764 30.0577 26.6714 30.0577V29.6395C29.1782 29.6395 31.582 28.6402 33.3547 26.8626C35.1272 25.0863 36.1233 22.6751 36.1233 20.1626V20.1394H36.5021ZM33.2612 20.1394V20.1626C33.2612 21.9143 32.5691 23.5951 31.3297 24.8335C30.095 26.0719 28.4207 26.7687 26.6714 26.7687V26.3788C26.6902 26.3804 26.7041 26.3804 26.723 26.3804C30.1182 26.3804 32.8682 23.6215 32.8682 20.2164V20.1394H33.2612ZM30.0061 20.1394V20.2164C30.0061 22.0354 28.5374 23.5102 26.723 23.5102H26.6714V20.1394H30.0061Z" fill="black"/>
</svg>
