<svg width="40" height="40" viewBox="0 0 40 40" fill="none" xmlns="http://www.w3.org/2000/svg">
<path fill-rule="evenodd" clip-rule="evenodd" d="M14.1095 15.1106L14.1082 15.1163L13.6686 16.993H20.5704L20.965 15.3093C21.8036 11.7211 21.7865 7.99994 14.2069 7.99994C5.06453 7.99994 3.92935 12.8507 2.25667 19.9981L2.25622 20L2.25507 20.0049C0.531348 27.3779 -0.549233 32 8.59188 32C14.8203 32 17.9302 28.8965 19.1935 23.4938L19.5323 22.0374H12.6326L12.2144 23.8198C11.5409 26.696 10.8353 27.7318 9.69859 27.7318C7.95273 27.7318 8.0042 26.7603 9.5849 20C11.1206 13.4349 11.4659 12.2702 13.3146 12.2702C14.7725 12.2702 14.3436 14.1077 14.1095 15.1106ZM38.9089 8.45278H23.6081L18.2054 31.5477H33.8258L35.0504 26.308H26.5486L27.4858 22.2973H35.1362L36.3158 17.2506H28.6655L29.4976 13.6947H37.6821L38.9089 8.45278Z" fill="black"/>
</svg>
