<svg width="40" height="40" viewBox="0 0 40 40" fill="none" xmlns="http://www.w3.org/2000/svg">
<g clip-path="url(#clip0_162_3)">
<path fill-rule="evenodd" clip-rule="evenodd" d="M29.8816 26.0836C29.8184 26.1359 29.7554 26.1882 29.6924 26.2402C29.6106 26.3078 29.5288 26.3756 29.4464 26.4433C29.4186 26.466 29.3972 26.4946 29.3756 26.5231C29.3542 26.5517 29.333 26.58 29.3056 26.6023C29.284 26.6202 29.2596 26.6335 29.2352 26.6466C29.211 26.6599 29.1866 26.6731 29.165 26.6908C28.9916 26.8334 28.8276 26.9876 28.6636 27.1418C28.4998 27.2958 28.3358 27.45 28.1624 27.5926C27.7966 27.8935 27.4402 28.2124 27.1072 28.5474C27.0806 28.5741 27.05 28.591 27.0196 28.6081C26.9954 28.6216 26.9712 28.635 26.9488 28.6535C26.8582 28.7279 26.4696 29.0595 26.4124 29.1662C26.3512 29.1815 26.2404 29.2869 26.1332 29.3886C26.0526 29.4652 25.974 29.5398 25.92 29.573C25.9638 29.4349 26.1282 29.2517 26.2528 29.113C26.2932 29.0679 26.3294 29.0275 26.3562 28.9947C26.3768 28.9692 26.3904 28.9393 26.4038 28.9095C26.4172 28.8797 26.4308 28.85 26.451 28.825C26.5252 28.7338 26.5938 28.6379 26.6622 28.542C26.7306 28.4463 26.799 28.3503 26.8732 28.2593C26.902 28.2239 26.933 28.1905 26.9642 28.1571C26.9954 28.1236 27.0268 28.09 27.0562 28.054C27.0772 28.0283 27.09 27.9961 27.105 27.9589C27.117 27.9285 27.1306 27.8948 27.151 27.8578C26.9946 27.9627 26.4774 28.4153 26.3772 28.5385C26.3688 28.549 26.3602 28.5597 26.3516 28.5703C26.3084 28.6244 26.2638 28.6801 26.2102 28.7241C26.1992 28.7332 26.185 28.7446 26.1682 28.7583C26.0362 28.8655 25.7452 29.1017 25.6912 29.2016C25.6712 29.2157 25.613 29.266 25.5432 29.3259C25.4212 29.431 25.2642 29.5661 25.2164 29.5905C25.2046 29.6345 25.122 29.7075 25.035 29.7845C24.9506 29.8593 24.8618 29.9379 24.8294 29.9972C24.8178 30.0073 24.805 30.0179 24.7916 30.0292C24.7058 30.1014 24.5918 30.1973 24.548 30.2801L24.4074 30.3509L24.3898 30.3686V30.4217C24.3518 30.456 24.3092 30.4828 24.2668 30.5095C24.193 30.5562 24.1198 30.6022 24.0732 30.6868L23.4928 31.1819C23.454 31.2209 23.4114 31.2653 23.3662 31.3123C23.203 31.4828 23.0072 31.6871 22.842 31.783C22.826 31.8011 22.8102 31.8198 22.794 31.8389C22.7216 31.9244 22.645 32.0146 22.543 32.0659C22.5092 32.1777 22.2718 32.3609 22.1332 32.4678C22.1028 32.4913 22.077 32.511 22.0594 32.5257C22.0128 32.5639 21.9748 32.6108 21.9368 32.6576C21.8986 32.7049 21.8602 32.7521 21.813 32.7909C21.7646 32.8307 21.7154 32.8695 21.6662 32.9083C21.617 32.9473 21.5678 32.9861 21.5194 33.026C21.4936 33.0473 21.4746 33.0748 21.4556 33.1026C21.4364 33.1303 21.4172 33.1583 21.391 33.1798C21.3694 33.1975 21.3452 33.2139 21.32 33.231C21.2546 33.2751 21.1828 33.3235 21.136 33.4098C21.1142 33.4247 21.0632 33.4679 21.006 33.5163C20.9198 33.5897 20.8192 33.675 20.7842 33.6927C20.6802 33.8061 20.303 34.1889 20.283 34.2054C20.2492 34.2331 20.2176 34.2635 20.1862 34.2938C20.1546 34.3242 20.1232 34.3546 20.0894 34.3821C20.068 34.3998 20.044 34.4135 20.02 34.4273C19.996 34.441 19.972 34.4547 19.9504 34.4724C19.8838 34.5273 19.821 34.5916 19.7568 34.6575C19.6494 34.7677 19.5376 34.8823 19.3948 34.9656C19.3628 35.0024 19.3364 35.0392 19.3114 35.0739C19.2732 35.1268 19.2384 35.1755 19.1924 35.2133C19.1744 35.2279 19.1536 35.239 19.1328 35.2503C19.112 35.2613 19.091 35.2724 19.0728 35.2875C18.8584 35.464 18.4592 35.8376 18.269 36.0796C18.143 36.1112 17.8684 36.381 17.7766 36.4862L18.3042 35.4962C18.2652 35.5388 18.1348 35.6447 17.9798 35.7706C17.7088 35.9908 17.363 36.2714 17.3018 36.3802L17.1258 36.4862C17.0086 36.6114 16.8984 36.7126 16.7846 36.8063C16.757 36.829 16.7352 36.8569 16.7134 36.8849C16.6916 36.913 16.6698 36.941 16.6422 36.9637C16.5968 37.0009 16.5492 37.0353 16.5016 37.0696C16.454 37.104 16.4062 37.1384 16.3608 37.1758C16.2412 37.2741 15.9766 37.5138 15.6824 37.78C15.2006 38.2163 14.6394 38.7246 14.5052 38.8026C14.5378 38.703 14.6288 38.5281 14.7234 38.3468C14.8498 38.1043 14.9822 37.8499 14.9888 37.7486C14.9946 37.663 14.6702 36.7083 14.5174 36.259C14.4856 36.1657 14.4614 36.0941 14.449 36.0565C14.4296 35.9982 14.4018 35.9425 14.374 35.8866C14.3458 35.8301 14.3174 35.7734 14.2976 35.7135C14.275 35.6449 14.2582 35.5748 14.2414 35.5048C14.2246 35.4348 14.2078 35.3647 14.185 35.2963C14.1536 35.2014 14.1128 35.1103 14.072 35.0193C14.0316 34.9288 13.991 34.8383 13.96 34.7446C13.9018 34.5693 13.8394 34.3954 13.7772 34.2215C13.7148 34.0475 13.6524 33.8734 13.5942 33.6979C13.5838 33.6667 13.5796 33.6338 13.5756 33.6012C13.5714 33.5686 13.5674 33.536 13.5572 33.5053C13.536 33.4411 13.5144 33.3772 13.493 33.3135C13.4716 33.2495 13.45 33.1856 13.4288 33.1215C13.3206 32.7953 13.2042 32.4714 13.0878 32.1477C12.9712 31.8236 12.8546 31.4997 12.7464 31.173C12.7242 31.1065 12.6992 31.0407 12.6734 30.9738C12.623 30.8421 12.5706 30.7051 12.5354 30.5453H12.553C12.553 30.5865 12.5924 30.6161 12.6408 30.6161C12.6892 30.7673 12.8456 31.0067 12.9712 31.1989C13.0048 31.2506 13.0364 31.2989 13.063 31.3411L13.274 31.7122H13.2916C13.205 31.4615 13.1384 31.2052 13.0728 30.9526C13.014 30.7267 12.956 30.5039 12.8854 30.2908C12.8642 30.2272 12.8532 30.1607 12.842 30.0943C12.831 30.0284 12.8198 29.9624 12.7992 29.8999C12.7356 29.7087 12.596 29.2137 12.4432 28.673C12.2886 28.1256 12.1206 27.531 12.0052 27.1567L11.2592 23.7397L8.2808 14.5387C8.2854 14.5266 8.2886 14.5137 8.2896 14.4997C8.29 14.4934 8.2414 14.3732 8.1744 14.2103C8.0332 13.8671 7.8092 13.3351 7.7866 13.2885C7.7706 13.2824 7.6112 12.9427 7.4346 12.5667C7.2418 12.1559 7.0288 11.7017 6.9598 11.5911C6.8674 11.3131 6.7568 11.0768 6.608 10.8307L7.3996 13.2885H7.3468L6.8368 12.0331C6.7504 11.9482 6.6408 11.6474 6.5412 11.3736C6.4648 11.1643 6.3942 10.9705 6.3442 10.9015C6.3088 10.8746 6.118 10.4174 5.9378 9.98529C5.7888 9.62801 5.6468 9.28762 5.6056 9.22187C5.5378 9.15834 5.4646 8.98342 5.3928 8.81171C5.339 8.68304 5.2858 8.55597 5.2362 8.47916L4.3744 6.41048C4.255 6.29849 3.829 5.18865 3.8116 5.13738C3.788 5.1229 3.6824 4.88485 3.5678 4.62669C3.4508 4.3631 3.3244 4.0782 3.2664 3.98813C3.2356 3.88116 2.9426 3.17786 2.8794 3.10407L2.4046 1.91944C2.3354 1.8547 2.3002 1.77146 2.2648 1.68742C2.2394 1.6277 2.214 1.56739 2.1758 1.5127L2 1C2.0988 1.02795 2.3228 1.12305 2.3694 1.21212L3.5302 1.86636C3.6004 1.94296 3.6856 1.99564 3.7722 2.04912C3.8148 2.07546 3.8578 2.1018 3.8996 2.13156C3.974 2.1979 4.285 2.35694 4.4814 2.45747C4.5424 2.48863 4.5924 2.51417 4.6206 2.52945C4.645 2.54252 4.6636 2.56343 4.6822 2.58394C4.7004 2.60444 4.7186 2.62455 4.742 2.63722C4.8748 2.7092 5.0064 2.78319 5.1382 2.85717C5.27 2.93116 5.402 3.00535 5.5352 3.07753C5.6694 3.15012 5.8524 3.27477 6.023 3.39098C6.1278 3.46236 6.228 3.53052 6.3092 3.58139C6.37 3.62622 6.7232 3.82648 6.8192 3.84678C6.904 3.94349 7.0308 4.02472 7.171 4.0589C7.2246 4.12263 7.2794 4.14757 7.3342 4.1729C7.353 4.18155 7.372 4.19019 7.3908 4.20024C7.4232 4.21794 7.452 4.24206 7.4808 4.26659C7.5102 4.29132 7.5398 4.31625 7.5736 4.33475C7.6376 4.36933 7.7028 4.4013 7.7702 4.43448C7.8642 4.48052 7.9626 4.52897 8.068 4.58929C8.0312 4.534 7.9684 4.48012 7.9032 4.42402C7.8344 4.36511 7.7628 4.30359 7.7162 4.23563L6.8896 3.61677C6.8646 3.53534 6.5026 3.24904 6.1924 3.00355C5.9654 2.8242 5.766 2.66657 5.7462 2.62676C5.8714 2.6718 5.9624 2.72086 6.0804 2.7858C6.1328 2.84732 6.2036 2.87949 6.2794 2.91407C6.3122 2.92895 6.3458 2.94423 6.3794 2.96253C6.4892 3.07231 6.6958 3.17364 6.8924 3.26995C7.024 3.33449 7.151 3.39661 7.2412 3.45774C7.2678 3.50317 7.3038 3.51524 7.3644 3.52851C7.4224 3.59466 7.4858 3.6226 7.5578 3.65457C7.591 3.66925 7.6262 3.68473 7.6634 3.70524C7.814 3.85543 8.3374 4.12746 8.6702 4.30037C8.7524 4.3432 8.823 4.37999 8.8734 4.40713C8.9936 4.47207 9.1088 4.55069 9.2284 4.63192C9.3024 4.68238 9.378 4.73365 9.4574 4.78371C9.604 4.82071 9.737 4.90073 9.8706 4.98115C9.9086 5.00407 9.9466 5.02699 9.985 5.04911C10.0974 5.1609 10.2312 5.22283 10.3688 5.28656C10.464 5.33059 10.5608 5.37543 10.6534 5.43796C10.7346 5.53145 11.3052 5.86098 11.4256 5.92593C11.4492 5.93879 11.4854 5.95448 11.5274 5.97277C11.6542 6.02746 11.8338 6.10527 11.8846 6.19836C11.957 6.21927 12.0088 6.25325 12.0566 6.28461C12.0782 6.29869 12.0988 6.31216 12.1202 6.32382C12.152 6.34091 12.1858 6.35317 12.2196 6.36544C12.2534 6.3775 12.2872 6.38977 12.319 6.40686C12.407 6.45451 12.4974 6.51744 12.5912 6.58258C12.7638 6.70241 12.9482 6.83069 13.151 6.88779C13.1862 6.93464 13.2268 6.94951 13.2648 6.96379C13.2808 6.96962 13.2964 6.97545 13.311 6.98329C13.3456 7.00199 13.3752 7.02853 13.405 7.05507C13.435 7.08201 13.4652 7.10895 13.501 7.12825C13.5728 7.16726 13.6432 7.20888 13.7138 7.2503C13.7842 7.29192 13.8546 7.33333 13.9266 7.37234C13.9564 7.38842 13.9886 7.39948 14.0206 7.41034C14.0528 7.4212 14.0848 7.43205 14.1148 7.44834C14.1696 7.4781 14.2194 7.52032 14.2778 7.56958C14.2942 7.58345 14.3112 7.59793 14.3294 7.6128L15.2264 8.09012C15.3182 8.18582 15.4932 8.28474 15.6514 8.37421C15.7286 8.41784 15.802 8.45926 15.8594 8.49686L16.1408 8.62071C16.2706 8.75421 16.4978 8.87565 16.6648 8.96512C16.686 8.97638 16.706 8.98704 16.7248 8.99729C16.7508 9.01137 16.7792 9.02021 16.8074 9.02906C16.8358 9.0379 16.864 9.04675 16.8902 9.06083C16.9564 9.09681 17.0414 9.15552 17.1348 9.21986C17.327 9.35276 17.5544 9.50959 17.7238 9.53995C17.7282 9.55523 17.7888 9.59464 17.8514 9.63525C17.9108 9.67385 17.9718 9.71366 17.9876 9.73457C18.0222 9.76212 18.0636 9.78142 18.1052 9.80072C18.1508 9.82203 18.1968 9.84334 18.2338 9.87592L19.3068 10.4594C19.4442 10.5951 19.6842 10.7145 19.9098 10.8267C20.022 10.8824 20.1306 10.9365 20.2214 10.99C20.3264 11.0943 20.5292 11.1912 20.7276 11.2861C20.8918 11.3646 21.053 11.4416 21.1536 11.5204C21.0232 11.3237 20.1468 10.654 19.9048 10.5125C19.8772 10.4246 19.604 10.2149 19.3302 10.0048C19.0954 9.82485 18.8602 9.6443 18.7792 9.53995L19.5178 9.929C19.6158 10.0374 19.7836 10.1475 19.94 10.1765C19.9452 10.1926 20.0376 10.2505 20.1312 10.309C20.2186 10.3637 20.3072 10.419 20.3268 10.4417L20.7314 10.6363C20.7904 10.7103 20.8734 10.7574 20.9776 10.7777C21.1006 10.9005 21.251 10.9715 21.4062 11.0447C21.486 11.0823 21.567 11.1207 21.646 11.1667C21.7236 11.2473 21.8222 11.2881 21.923 11.3296C22.0024 11.3623 22.0832 11.3957 22.156 11.4496V11.5027C22.1862 11.5258 22.3536 11.6197 22.5384 11.7234C22.7606 11.8483 23.0078 11.987 23.0706 12.0331C23.1416 12.098 23.2774 12.1549 23.3938 12.2036C23.4532 12.2285 23.5074 12.2512 23.5456 12.2717C23.5984 12.3005 23.646 12.3415 23.704 12.392C23.7152 12.4016 23.7268 12.4117 23.739 12.4221L24.0204 12.5458C24.1656 12.6883 24.3932 12.8001 24.6136 12.9087C24.7266 12.9642 24.8378 13.0189 24.935 13.0764C25.034 13.1853 25.1992 13.2895 25.357 13.3239C25.3924 13.3679 25.4336 13.393 25.4768 13.4196C25.5068 13.4379 25.5378 13.4568 25.5682 13.4829C25.643 13.5438 25.7426 13.583 25.8496 13.6068C25.9588 13.7248 26.349 13.9526 26.518 13.9958C26.5592 14.0479 26.61 14.069 26.6572 14.0885C26.6754 14.0961 26.6932 14.1036 26.7096 14.1124C26.7388 14.1283 26.7638 14.1504 26.7888 14.1727C26.8142 14.1954 26.8396 14.2182 26.8696 14.2345C26.9508 14.2783 27.0298 14.3261 27.109 14.3742C27.188 14.422 27.267 14.4699 27.348 14.5137C27.3868 14.5348 27.4278 14.5515 27.4688 14.5682C27.51 14.5851 27.5514 14.602 27.5908 14.6235C27.6982 14.6814 27.8012 14.7524 27.9098 14.8272C27.9602 14.8618 28.0118 14.8973 28.0656 14.9327L28.5934 15.1981C28.7036 15.3172 29.7052 15.8872 29.8016 15.8946C29.8502 15.8984 30.0272 15.821 30.0884 15.7639L30.1938 15.7285C30.118 15.6141 29.2926 15.1358 28.8062 14.8541C28.6588 14.7687 28.5426 14.7013 28.4878 14.6675C28.4146 14.6088 27.0212 13.7927 26.8538 13.7023C26.8304 13.6896 26.8046 13.6809 26.7756 13.6715C26.7414 13.66 26.7026 13.6472 26.6586 13.6244C26.6002 13.5589 26.5312 13.5163 26.4602 13.4724C26.4208 13.4481 26.381 13.4236 26.342 13.3946C26.272 13.3393 25.6772 13.004 25.5788 12.9507C25.5548 12.9378 25.5288 12.9292 25.5028 12.9205C25.477 12.9121 25.4512 12.9035 25.4274 12.8906C25.331 12.8385 25.2336 12.7683 25.134 12.6966C25.08 12.6576 25.0256 12.6184 24.9702 12.5812C24.896 12.5128 24.777 12.4647 24.6724 12.4227C24.6186 12.401 24.5686 12.3809 24.5304 12.3602C24.4072 12.2934 24.2898 12.2132 24.1682 12.1302C24.0866 12.0745 24.0032 12.0174 23.9148 11.9623L24.759 12.369C24.7916 12.4101 25.257 12.6391 25.702 12.858C26.0408 13.0247 26.3676 13.1853 26.4828 13.2531C26.509 13.2887 26.5954 13.3349 26.6808 13.3808C26.7482 13.4168 26.8152 13.4527 26.852 13.4829C26.9174 13.4988 27.7116 13.8973 27.8194 13.9781L29.4376 14.7737C29.5158 14.8545 29.7066 14.9331 29.893 15.0099C30.048 15.0739 30.2 15.1364 30.2818 15.1981V15.251C30.3778 15.2822 30.4872 15.3344 30.5914 15.3843C30.5952 15.3861 30.599 15.3881 30.6028 15.3899L37.9472 19.2488L29.8816 26.0836ZM26.2084 26.3355C25.9704 26.4904 25.7386 26.6416 25.526 26.8165C25.437 26.8895 25.3452 26.959 25.2534 27.0286C25.1614 27.0982 25.0696 27.1675 24.9808 27.2407C24.794 27.3943 24.6098 27.5513 24.4258 27.7084C24.2418 27.8654 24.0578 28.0224 23.8708 28.176C23.8074 28.2283 23.7538 28.2928 23.6962 28.3624C23.6654 28.3994 23.6334 28.438 23.5982 28.4766C23.8974 28.2977 24.177 28.0564 24.4404 27.8292C24.5346 27.748 24.6268 27.6686 24.7168 27.5944C24.7494 27.5676 24.7846 27.5443 24.8198 27.521C24.855 27.4977 24.8902 27.4743 24.9226 27.4476C25.0582 27.3362 25.194 27.2252 25.3298 27.1142C25.4656 27.0035 25.6016 26.8925 25.737 26.7811C25.7812 26.7447 25.903 26.6546 26.0502 26.5457C26.3624 26.3146 26.7892 25.9988 26.8346 25.9306H26.7994C26.6032 26.0784 26.4038 26.2083 26.2084 26.3355ZM5.6428 4.37979C5.678 4.4192 5.7076 4.45237 5.727 4.4761C5.7614 4.51852 5.793 4.56315 5.8246 4.60779C5.8562 4.65262 5.8878 4.69726 5.9222 4.73968C5.9504 4.77426 5.9836 4.80623 6.0178 4.8388C6.0882 4.90656 6.1624 4.97774 6.2036 5.0843C6.1494 5.07243 6.0998 5.05293 6.0522 5.03403C5.9376 4.98899 5.8348 4.94838 5.7112 5.03142C5.623 4.95683 5.5788 4.87138 5.5364 4.78934C5.5086 4.73586 5.4818 4.68359 5.4438 4.63694C5.4218 4.61 5.3892 4.59834 5.3532 4.58547C5.321 4.57401 5.2862 4.56154 5.2538 4.53621C5.2814 4.58426 5.3102 4.63171 5.339 4.67876C5.4454 4.85368 5.549 5.02398 5.581 5.20634C5.5912 5.26485 5.5776 5.31712 5.5638 5.3708C5.5578 5.39393 5.5518 5.41725 5.5476 5.44158C5.5324 5.52823 5.5392 5.60986 5.5462 5.6935C5.5488 5.72286 5.5512 5.75261 5.5528 5.78277C5.577 6.2432 5.8682 6.61877 6.186 6.95856C6.2622 7.07035 6.3772 7.21712 6.495 7.36771C6.6654 7.58526 6.8418 7.81044 6.9158 7.94877C7.1182 8.32636 7.2928 8.71822 7.4674 9.10988C7.642 9.50134 7.8166 9.8928 8.0186 10.2702C8.1562 10.5271 8.2008 10.8525 8.2378 11.1215C8.269 11.3497 8.2948 11.5375 8.367 11.6088V11.149L8.3846 11.1313H8.4372C8.5476 11.453 8.8242 12.0721 8.9614 12.3284C8.984 12.3706 9.009 12.4103 9.035 12.4515C9.0698 12.5066 9.1064 12.5645 9.1408 12.6342C9.1408 12.5007 9.129 12.3893 9.119 12.2961C9.1118 12.2289 9.1056 12.1712 9.1056 12.1215H9.1408C9.1592 12.2016 9.253 12.3986 9.3194 12.5383C9.3556 12.6143 9.3836 12.6734 9.387 12.6873H9.4222C9.3204 12.2432 9.1654 11.8179 9.0142 11.4023C8.9428 11.2065 8.8722 11.0127 8.8084 10.8201C8.7628 10.6826 8.7116 10.4783 8.6644 10.2893C8.6236 10.1268 8.5858 9.97584 8.5568 9.88838C8.4758 9.6441 8.401 9.38956 8.3564 9.13522C8.3438 9.06404 8.3054 8.93235 8.261 8.78015C8.1642 8.44921 8.039 8.02075 8.0908 7.90635C8.1246 7.83156 8.4562 7.97069 8.6392 8.04749C8.6876 8.0678 8.7256 8.08368 8.745 8.09012C8.9534 8.16008 10.2594 8.67319 10.4072 8.75321C10.5004 8.80367 10.56 8.87947 10.6244 8.9615C10.655 9.00031 10.6868 9.04072 10.7238 9.08033C10.8612 9.10526 11.0748 9.19352 11.2636 9.27174C11.37 9.31577 11.4686 9.35658 11.5416 9.38091C11.8532 9.48526 12.168 9.57915 12.4828 9.67285C12.7976 9.76634 13.1122 9.86003 13.4236 9.96438C13.705 10.0587 14.0034 10.1841 14.3048 10.3108C14.6118 10.4399 14.9218 10.5702 15.2192 10.6699C15.2526 10.6812 15.2836 10.6978 15.3148 10.7147C15.346 10.7318 15.3772 10.7487 15.411 10.76C15.9578 10.9433 16.7584 11.2773 17.263 11.5503C17.2942 11.5674 17.331 11.5803 17.369 11.594C17.4444 11.6207 17.5256 11.6495 17.5832 11.7148C17.6634 11.7325 17.9754 11.8632 18.0228 11.9269C18.1296 11.9269 18.229 11.9746 18.3152 12.016C18.3542 12.0347 18.3906 12.052 18.4238 12.0632C18.4672 12.0777 18.5126 12.0833 18.5578 12.0892C18.6026 12.0948 18.6472 12.1002 18.6894 12.1145C18.7064 12.1201 18.7214 12.1292 18.7362 12.1384C18.7512 12.1475 18.766 12.1565 18.7826 12.1621C18.8222 12.1754 18.8636 12.1819 18.905 12.1885C18.9468 12.1951 18.9888 12.2018 19.0288 12.2152C19.1146 12.244 19.2002 12.2729 19.2858 12.3019C19.3712 12.3308 19.4568 12.3598 19.5424 12.3885C19.5834 12.4022 19.6302 12.409 19.6802 12.4165C19.7404 12.4251 19.805 12.4346 19.8696 12.4575C19.0914 11.8616 18.192 11.4217 17.3072 10.9888C16.9072 10.7929 16.5102 10.5987 16.1286 10.3922C16.0758 10.3637 16.0028 10.3253 15.9188 10.281C15.6038 10.1154 15.1334 9.86787 14.9906 9.75046C14.9406 9.70924 14.8904 9.66842 14.8402 9.62761C14.79 9.58659 14.7398 9.54578 14.6898 9.50476C14.6544 9.47541 14.634 9.44646 14.6124 9.41529C14.5712 9.35658 14.5248 9.29023 14.3592 9.20056C14.2616 9.14768 13.987 9.04293 13.7128 8.93838C13.439 8.83403 13.1654 8.72988 13.0682 8.67721C12.8914 8.5815 12.706 8.50188 12.5206 8.42226C12.3356 8.34285 12.1504 8.26343 11.9742 8.16793C11.7536 8.0485 11.5338 7.92746 11.3138 7.80642C11.094 7.68539 10.874 7.56435 10.6534 7.44472C10.292 7.24929 9.9274 7.05969 9.5628 6.8701C9.1984 6.6807 8.8338 6.4911 8.4724 6.29547C8.4208 6.26752 8.329 6.22168 8.2194 6.16699C7.9174 6.0164 7.4812 5.79866 7.382 5.70315C7.3658 5.68526 7.3536 5.66877 7.3428 5.6543C7.3246 5.62957 7.3106 5.61067 7.2888 5.60061C7.2664 5.59036 7.2428 5.59559 7.219 5.60081C7.1978 5.60564 7.1762 5.61026 7.155 5.60423C7.076 5.58151 6.5774 5.31551 6.5114 5.26123C6.4412 5.20332 6.4094 5.12089 6.378 5.03926C6.354 4.97673 6.3304 4.91501 6.2898 4.86514C6.2676 4.838 6.2356 4.82473 6.2034 4.81166C6.1708 4.79839 6.1382 4.78512 6.1156 4.75717C6.101 4.73948 6.0816 4.71535 6.0584 4.6868C5.9176 4.51309 5.6434 4.17511 5.5528 4.07659C5.4752 4.03276 5.4276 3.97043 5.3804 3.90831C5.339 3.85382 5.2976 3.79953 5.2362 3.75832C5.2362 3.92479 5.4916 4.2107 5.6428 4.37979ZM31.4602 18.9111C31.4986 18.9804 31.7506 19.1123 32.0128 19.2499C32.2904 19.3952 32.5794 19.5466 32.6386 19.6361C32.533 19.7666 32.0554 20.1019 31.6364 20.3959C31.3766 20.5782 31.1392 20.7447 31.0276 20.8366C30.9472 20.9028 30.8574 20.9588 30.7676 21.0151C30.6772 21.0716 30.5868 21.1283 30.5052 21.1955C30.4076 21.2757 30.3024 21.3463 30.1972 21.4167C30.0922 21.487 29.987 21.5574 29.8896 21.6376C29.792 21.7178 29.6866 21.7884 29.5814 21.8588C29.4762 21.9292 29.3712 21.9997 29.274 22.0795C29.0372 22.2744 28.7846 22.4491 28.532 22.624C28.2794 22.7987 28.0266 22.9737 27.7896 23.1687C27.7264 23.2208 27.5828 23.3163 27.4448 23.4081C27.317 23.4932 27.194 23.575 27.144 23.616C26.9862 23.7459 25.8486 24.5968 25.7088 24.6398C25.6586 24.7351 24.223 25.7521 24.0732 25.8333C23.977 25.8854 23.8776 25.9338 23.7772 25.9829C23.5004 26.118 23.2174 26.2559 22.9826 26.4787L23.5982 26.1781C23.4452 26.2998 23.2608 26.4359 23.0808 26.5686C22.8822 26.7151 22.6892 26.8575 22.55 26.9719C22.5266 26.9912 22.4996 27.0047 22.4726 27.0179C22.4456 27.0312 22.4188 27.0447 22.3952 27.064C22.27 27.1669 22.1376 27.2608 22.0054 27.3547C21.8736 27.4484 21.742 27.5419 21.6178 27.6438C21.5618 27.6899 21.4868 27.7271 21.4158 27.7623C21.352 27.794 21.2912 27.8242 21.2502 27.8578C21.2244 27.8791 21.2 27.9048 21.1748 27.9317C21.1174 27.9925 21.0552 28.0584 20.96 28.0876L21.1712 27.8401C21.0598 27.9128 20.9752 27.9716 20.8984 28.0347C20.7946 28.1201 20.7006 28.2179 20.6066 28.3158C20.5126 28.4135 20.4186 28.5114 20.3146 28.5968C20.1686 28.7169 19.994 28.8325 19.8204 28.9475C19.6482 29.0615 19.4768 29.1749 19.335 29.2917C19.1404 29.4517 18.9334 29.5963 18.7262 29.7409C18.5192 29.8854 18.3122 30.0302 18.1178 30.19C18.045 30.2499 17.9642 30.3006 17.8834 30.3515C17.8024 30.4024 17.7214 30.4532 17.6482 30.5135C17.3858 30.7293 16.9408 31.0465 16.6334 31.2526C16.5474 31.1794 16.4788 30.8226 16.4192 30.5123C16.3822 30.3201 16.3488 30.146 16.3168 30.068H16.2816C16.2816 30.2562 16.368 30.6858 16.4288 30.9886C16.463 31.1581 16.489 31.2878 16.4874 31.3127C16.4848 31.3524 16.4594 31.3867 16.417 31.3835C16.3504 31.3783 16.2112 31.0258 16.1102 30.7701C16.0662 30.6587 16.0294 30.5656 16.009 30.5276C15.845 30.2216 15.7344 29.8802 15.6262 29.5462C15.605 29.4805 15.5838 29.415 15.5622 29.35C15.5484 29.3084 15.5216 29.2762 15.4944 29.2439C15.467 29.2109 15.4394 29.1779 15.425 29.1345C15.3662 28.9571 15.0474 28.174 14.966 28.0222C14.9026 27.9038 14.624 27.287 14.7338 27.1858C14.8052 27.2976 14.8614 27.4102 14.9138 27.516C14.9392 27.567 14.9638 27.6165 14.9888 27.6633C15.134 27.9342 15.3912 28.293 15.5852 28.5315C15.6042 28.5548 15.6348 28.5912 15.6726 28.6359C15.849 28.8448 16.1806 29.2372 16.2112 29.3607H16.2288C16.2288 29.3462 16.229 29.3327 16.229 29.3203C16.2294 29.2519 16.2296 29.2093 16.2166 29.1697C16.1636 29.01 15.8684 28.6682 15.6626 28.43C15.6012 28.359 15.548 28.2971 15.5112 28.252C15.3898 28.1028 14.7456 27.2258 14.7232 27.0994C14.71 27.0234 14.7064 26.9466 14.7028 26.8675C14.698 26.761 14.693 26.6504 14.6634 26.5318H14.6108L14.558 26.9914C14.4572 26.8852 14.1366 26.0581 14.0848 25.9023C14.0302 25.7374 13.3744 24.2098 13.2952 24.0616C13.2868 24.0461 13.2782 24.0302 13.2696 24.0143C13.1996 23.8844 13.1244 23.7449 13.0788 23.6072C13.0348 23.4745 12.9734 23.3498 12.9122 23.2254C12.8512 23.1011 12.79 22.9771 12.7464 22.8452C12.738 22.8196 12.7298 22.7933 12.7216 22.7668C12.6956 22.6831 12.6686 22.5965 12.6286 22.5217C12.604 22.4758 12.5794 22.4398 12.5178 22.3944C12.5452 22.4915 12.5714 22.5862 12.5972 22.6787C12.6668 22.9302 12.7322 23.1669 12.8096 23.4003C12.84 23.4916 12.8624 23.5857 12.8846 23.6794C12.9068 23.7731 12.9292 23.8666 12.9592 23.9572C13.0186 24.1366 13.1224 24.5928 13.1562 24.7848C13.18 24.9207 13.4576 25.8353 13.5168 26.0137C13.5602 26.1449 13.593 26.2807 13.6258 26.4166C13.6584 26.5525 13.6912 26.6884 13.7348 26.8199C13.804 27.0282 14.3418 28.9382 14.347 29.0335C14.3646 29.3723 14.3472 29.7218 14.2888 30.0539C14.2852 30.0748 14.2814 30.0953 14.2774 30.1158C14.2594 30.2126 14.2414 30.3093 14.2414 30.4393C14.3546 30.2646 14.4524 29.7913 14.4524 29.573H14.5052L15.0856 31.8538L14.9274 31.7299C14.9684 31.8009 14.9956 31.8773 15.0196 31.9447C15.0314 31.9778 15.0424 32.0088 15.054 32.0359C15.078 32.0924 15.1066 32.1471 15.1352 32.2018C15.1764 32.2806 15.2176 32.3597 15.2456 32.4443C15.3844 32.8627 15.4962 33.3016 15.6028 33.7297C15.6354 33.8614 15.7606 34.3646 15.965 34.3646C16.011 34.5144 16.007 34.6543 16.0028 34.7997C16.0014 34.8427 16.0002 34.8862 16.0002 34.9304C16.042 34.8857 16.0496 34.8435 16.059 34.7923C16.0622 34.7748 16.0656 34.7561 16.0706 34.7358H16.1234L16.1408 34.7535C16.1408 34.9499 16.1946 35.2428 16.3344 35.3546L16.264 34.559H16.2816L16.4398 34.9833C16.4946 34.9059 16.4492 34.7034 16.406 34.51C16.3786 34.3877 16.352 34.2691 16.352 34.1877C16.4058 34.1762 16.5926 34.0196 16.7752 33.8666C16.9278 33.7389 17.0772 33.6135 17.1434 33.5777C17.3228 33.4806 17.5198 33.3844 17.7132 33.3195C17.7388 33.3111 17.793 33.2938 17.862 33.2717C18.0986 33.1961 18.5098 33.0646 18.5416 33.0384C18.591 32.9978 18.671 32.8776 18.7446 32.767C18.792 32.696 18.8366 32.6291 18.8688 32.5893C18.899 32.5523 18.9318 32.5173 18.9646 32.4823C18.9976 32.4473 19.0304 32.4125 19.0606 32.3753C19.3404 32.0313 20.546 30.9205 20.916 30.6161C20.974 30.5684 21.0294 30.518 21.085 30.4675C21.1404 30.417 21.196 30.3666 21.2538 30.3191C21.3494 30.2403 21.4722 30.1756 21.5864 30.1152C21.612 30.1016 21.6374 30.0883 21.6618 30.075C21.7874 30.0071 22.5926 29.4007 22.6662 29.2899L22.0506 29.6082C22.415 29.3253 22.7588 29.0305 23.099 28.739C23.3148 28.5542 23.529 28.3705 23.746 28.1919C23.768 28.1738 23.8056 28.1412 23.8524 28.1006C24.0324 27.9442 24.3492 27.6692 24.4426 27.6456C24.489 27.5708 24.5434 27.5316 24.5952 27.4944C24.6134 27.4814 24.6312 27.4687 24.6482 27.4546C24.7846 27.3426 24.918 27.226 25.0514 27.1094C25.1852 26.9926 25.3188 26.8758 25.4556 26.7634C25.5744 26.6657 25.6952 26.5708 25.8166 26.4755C26.0638 26.2815 26.3134 26.0854 26.553 25.8598L26.641 25.8421C26.6698 25.7848 27.0974 25.4499 27.3414 25.2587C27.4148 25.2012 27.4716 25.1567 27.4958 25.1366C27.619 25.0355 28.8616 24.1878 28.9626 24.1625C28.9626 24.1209 28.9862 24.1094 29.0154 24.1094V24.074H28.91C28.9416 24.0443 28.9686 24.0165 28.9934 23.9912C29.0254 23.9582 29.0538 23.9293 29.084 23.9043C29.1704 23.8332 29.3422 23.7045 29.5314 23.5626C29.839 23.3321 30.1924 23.0673 30.2994 22.9602C30.3944 22.8952 30.745 22.5918 31.0294 22.3455C31.1838 22.212 31.3186 22.0952 31.3828 22.0423C31.488 21.9559 31.5986 21.8759 31.709 21.7959C31.8196 21.7158 31.9302 21.6356 32.0354 21.5492C32.0698 21.5208 32.1086 21.4983 32.1472 21.4756C32.186 21.453 32.2246 21.4305 32.2588 21.4024C32.4476 21.247 32.6402 21.0962 32.833 20.9454C33.0256 20.7946 33.2182 20.6436 33.4072 20.4884C33.4512 20.452 33.5186 20.4043 33.5966 20.349C33.8816 20.1472 34.311 19.843 34.2832 19.6184C34.2566 19.4057 33.8248 19.2975 33.6428 19.2519L33.6306 19.2488C33.5578 19.2306 33.3976 19.1847 33.2126 19.1318C32.8508 19.0283 32.3946 18.8978 32.3132 18.8934C32.1544 18.8849 31.9936 18.8877 31.8234 18.8906C31.7346 18.892 31.6432 18.8934 31.5482 18.8934L31.4602 18.9111Z" fill="black"/>
</g>
<defs>
<clipPath id="clip0_162_3">
<rect width="36" height="38" fill="white" transform="translate(2 1)"/>
</clipPath>
</defs>
</svg>
