<svg width="40" height="40" viewBox="0 0 40 40" fill="none" xmlns="http://www.w3.org/2000/svg">
<path fill-rule="evenodd" clip-rule="evenodd" d="M17.3927 36H10C6.13401 36 3 32.866 3 29V26.1591C3.26481 25.6608 3.57903 25.185 3.93882 24.7337C5.20016 23.1445 7.33504 21.8239 9.14172 21.5012C9.73016 21.3968 10.5204 21.4637 10.8462 21.8396C11.3588 22.4165 11.2115 23.0495 10.6995 23.302C9.32039 23.9827 7.66212 25.1483 6.84153 26.7387C6.17494 28.0372 6.04088 29.6024 7.05801 31.0934C8.76011 33.5777 13.5045 33.6462 17.9155 29.6838C19.0073 28.7141 19.9847 27.7825 20.9783 26.6787C22.9211 24.5311 23.5678 23.7482 26.1503 20.2841C26.1813 20.2449 26.1893 20.1917 26.1761 20.1664C26.1549 20.1215 26.1187 20.1097 26.0434 20.1052C24.3194 20.1512 22.8162 20.6484 21.356 21.7045C20.9353 22.0002 20.3294 21.9588 20.0645 21.5682C19.7697 21.1277 19.9808 20.552 20.4669 20.2276C22.6038 18.7908 24.9199 18.4233 27.2936 18.0465C27.5306 18.0089 27.7682 17.9712 28.0062 17.9324C28.0039 17.9324 28.1885 17.9412 28.3385 17.7482C28.7935 17.1834 29.2014 16.6419 29.6075 16.103C30.1617 15.3675 30.7124 14.6366 31.3743 13.8572C32.5299 12.4868 34.0239 11.2287 35.1652 10.2836C35.872 9.69554 36.4665 9.28086 36.9999 8.95364C37 8.96908 37 8.98453 37 9V11.9298C35.1574 13.5089 33.5346 15.2404 32.2856 17.3385C32.2161 17.4187 32.254 17.4951 32.3735 17.4866C32.9485 17.4572 33.5048 17.4326 34.0505 17.4085C35.0529 17.3642 36.0195 17.3214 37 17.2532V18.8243C35.238 18.9469 32.9302 19.1685 31.2926 19.3666C30.8306 19.4222 30.7629 19.5052 30.6675 19.6601C30.6003 19.7673 30.5329 19.8747 30.4655 19.9823C27.4839 24.7379 24.3025 29.8121 20.8179 33.2341C19.6215 34.4084 18.4884 35.312 17.3927 36ZM35.3339 4.46664C32.9669 4.18076 30.5914 3.99285 28.1874 4.00021C27.1481 4.00341 26.1035 4.0429 25.0519 4.12693C18.067 4.69539 11.4187 8.49799 11.4066 14.2713C11.3991 17.1989 13.5516 19.571 16.8868 19.4667C20.8059 19.3382 24.0232 16.3022 25.7075 12.4745C26.3465 11.0222 25.163 10.419 24.5999 11.2551C23.619 12.7158 22.2527 13.8909 20.6451 14.6567C18.801 15.5298 16.83 15.2942 16.2324 13.8464C15.3922 11.8038 17.1386 8.74723 21.1238 7.30896C26.2526 5.47296 31.593 6.35498 36.7956 7.31373C36.5318 6.24738 36.0237 5.27739 35.3339 4.46664Z" fill="black"/>
</svg>
