<svg width="40" height="40" viewBox="0 0 40 40" fill="none" xmlns="http://www.w3.org/2000/svg">
<path d="M20.6905 6.00017C19.8694 6.00281 19.044 6.03533 18.2132 6.10453C12.6945 6.57268 7.44164 9.70423 7.4321 14.4587C7.4262 16.8697 9.12688 18.8232 11.762 18.7373C14.8585 18.6314 17.4005 16.1312 18.7312 12.979C19.2361 11.783 18.301 11.2862 17.8561 11.9748C17.0811 13.1777 16.0016 14.1455 14.7314 14.7761C13.2744 15.4952 11.7171 15.3011 11.2449 14.1088C10.5811 12.4266 11.9609 9.90948 15.1096 8.72503C19.6576 7.02806 24.4161 8.1506 28.995 9.01757C29.0603 9.01757 29.3042 9.15391 29.0886 9.26713C28.2686 9.71772 27.4613 10.0841 26.2037 11.1748C25.302 11.953 24.1215 12.9891 23.2085 14.1177C22.3023 15.23 21.6599 16.2222 20.81 17.3221C20.6915 17.481 20.5456 17.4737 20.5474 17.4737C18.4757 17.8263 16.4476 18.0625 14.5906 19.3639C14.2065 19.631 14.0398 20.1052 14.2727 20.4679C14.482 20.7896 14.9607 20.8237 15.2931 20.5802C16.4468 19.7104 17.6345 19.301 18.9966 19.2631C19.0561 19.2668 19.0847 19.2765 19.1015 19.3135C19.1119 19.3343 19.1055 19.3781 19.081 19.4105C17.0407 22.2632 16.5297 22.9079 14.9946 24.6765C14.2096 25.5856 13.4374 26.3528 12.5748 27.1514C9.08967 30.4145 5.34113 30.3581 3.99631 28.3122C3.19269 27.0843 3.2986 25.7954 3.82527 24.726C4.47362 23.4163 5.78381 22.4564 6.87347 21.8958C7.27801 21.6878 7.39436 21.1665 6.98937 20.6915C6.73194 20.3818 6.10757 20.3268 5.64265 20.4128C4.21519 20.6785 2.52843 21.766 1.53185 23.0748C0.408593 24.5435 -0.152514 26.3265 0.0359055 28.3275C0.374155 31.9382 3.32398 34.0238 6.67287 33.9998C9.33764 33.9788 11.8477 33.1651 14.8679 30.0751C17.6834 27.1933 20.2483 22.8885 22.6501 18.8965C22.7255 18.769 22.7789 18.7006 23.144 18.6549C24.6504 18.4649 26.8748 18.2487 28.3005 18.1655C28.6174 18.148 28.6818 18.1515 28.8089 18.311C29.1803 18.7833 29.7382 19.1841 30.185 19.4281C30.4029 19.5474 30.5065 19.6069 30.6777 19.6096C30.8888 19.6143 31.0531 19.4998 31.1593 19.3787C31.3105 19.2114 31.3523 18.9926 31.2706 18.8517C31.1852 18.7038 30.191 18.1485 30.1615 17.9239C30.1397 17.7838 30.2917 17.75 30.2917 17.75C31.0227 17.5189 31.7832 17.0434 32.244 16.1538C32.6966 15.278 32.7697 14.1093 31.9416 13.4595C31.2147 12.8888 30.1164 12.9788 29.2401 13.7714C28.3829 14.5408 28.0993 15.6603 28.2151 16.6414C28.236 16.8115 28.2273 16.8687 27.9971 16.8881C26.6795 16.9944 25.41 17.0313 23.998 17.1066C23.9036 17.1136 23.8736 17.0507 23.9285 16.9846C25.5544 14.1379 27.982 12.1106 30.6671 10.1142C30.8451 9.97972 30.7907 9.72399 30.7835 9.51048C32.6416 10.1176 33.0737 10.7076 35.0119 10.9412C38.1908 11.3221 42.8106 8.75905 37.7545 8.14256C31.9798 7.43613 26.4385 5.98184 20.6905 6.00017ZM30.8346 14.2504C30.9534 14.2568 31.0645 14.297 31.1544 14.3746C31.4223 14.6052 31.2955 15.1806 31.0249 15.579C30.7293 16.0185 30.228 16.3978 29.7708 16.4903C29.6791 16.5074 29.5997 16.4676 29.562 16.2629C29.4876 15.7208 29.6625 14.9949 30.2373 14.4833C30.4172 14.323 30.6367 14.2398 30.8346 14.2504Z" fill="black"/>
</svg>
