<svg width="40" height="40" viewBox="0 0 40 40" fill="none" xmlns="http://www.w3.org/2000/svg">
<path d="M15.4447 5.62049C16.5892 6.38862 16.6083 8.36701 15.4887 10.0352C14.3681 11.7037 12.5302 12.4345 11.3861 11.6664C10.2421 10.8983 10.2226 8.92054 11.3427 7.25196C12.4628 5.58381 14.3007 4.85236 15.4447 5.62049Z" fill="black"/>
<path fill-rule="evenodd" clip-rule="evenodd" d="M26.6244 15.9427V16.6742L33.7572 16.6743L33.7577 17.4058L26.6244 17.4055V18.1367L33.7572 18.137V18.8682L26.6244 18.8682V19.5994L33.7572 19.5997V20.331L27.351 20.3309L27.3505 21.0621L39.9999 21.0621V21.7934L33.2265 21.7935V22.5247H39.3944L39.3949 23.2562L32.8666 23.2557V23.987L38.8959 23.9877V24.7185L32.4584 24.7187V25.4499L38.4403 25.4501V26.1813L31.6063 26.1812V26.9126L37.6127 26.9124V27.6439L28.4701 27.6435L28.4706 28.375L35.3178 28.3752V29.1064L26.952 29.1065V29.8377L34.0849 29.838V30.2037L26.952 30.2033L26.9516 30.9346L34.0849 30.9349V31.6661L2.66298 31.6658C2.57509 31.6657 2.45985 31.669 2.32655 31.6729L2.31776 31.673C1.50868 31.6961 0.0457922 31.7379 0.00331169 31.2114C-0.0674891 30.3366 1.01015 29.889 1.97011 29.4902C2.53163 29.257 3.05263 29.0406 3.28066 28.7653C3.89784 28.0192 7.73817 18.3084 7.70546 17.7283C7.69179 17.4896 7.37294 17.4471 7.00185 17.3977C6.47011 17.327 5.83144 17.242 5.83144 16.5452C5.83144 15.3783 7.45497 14.6136 8.93398 13.9167L8.99452 13.8883C10.2753 13.2849 12.3876 12.8334 13.4154 12.8334C14.4433 12.8334 12.327 17.728 11.7767 18.8321C11.6434 19.0998 11.5009 19.3564 11.37 19.5915C10.9603 20.3265 10.6679 20.8519 11.1459 20.852L15.3363 20.8516C16.245 20.8517 17.3192 18.9521 18.0736 17.6181L18.0839 17.6011C18.3383 17.1513 18.5551 16.7673 18.7172 16.5451L18.8197 16.4018L18.9091 16.2743C19.4003 15.571 19.6513 15.2117 21.2309 15.2114L33.7577 15.2118L33.7572 15.9431L26.6244 15.9427ZM20.2294 19.2533C19.9017 19.2532 19.1654 20.4053 18.455 21.5169C17.8749 22.4249 17.3119 23.3058 17.0028 23.51C16.6669 23.7317 15.4545 23.726 14.2894 23.7205C13.0726 23.7148 11.9076 23.7092 11.8471 23.9635C11.789 24.2044 12.3383 24.694 12.9179 25.211C13.536 25.7623 14.1889 26.3449 14.1791 26.6903C14.1703 26.9819 13.726 27.5034 13.2699 28.0383C12.6786 28.7316 12.0678 29.4475 12.3632 29.7146C12.6449 29.9692 14.1923 29.1566 15.6654 28.3827C16.932 27.7175 18.1439 27.081 18.4511 27.1752C18.7318 27.2612 18.851 27.7277 18.9813 28.2379C19.1591 28.9356 19.3583 29.7149 20.0199 29.7147C20.664 29.7146 20.559 28.8184 20.4555 27.9327C20.3749 27.2424 20.2953 26.5585 20.5712 26.3106C20.8324 26.0761 21.5448 25.7105 22.2846 25.3306C23.3295 24.7943 24.4306 24.2291 24.3978 23.9634C24.3749 23.7795 23.8534 23.8171 23.205 23.8638C22.2533 23.9323 21.0272 24.0205 20.6996 23.4581C20.4257 22.989 20.4545 21.9498 20.4799 21.0219C20.5058 20.0802 20.5287 19.2532 20.2294 19.2533ZM9.14247 26.3072C9.14247 26.3072 7.36659 28.0416 8.14833 28.6777C8.93056 29.3139 10.515 28.2053 10.515 27.6359C10.515 27.0668 10.3363 25.4933 9.14247 26.3072Z" fill="black"/>
</svg>
