<svg width="40" height="40" viewBox="0 0 40 40" fill="none" xmlns="http://www.w3.org/2000/svg">
<path fill-rule="evenodd" clip-rule="evenodd" d="M31.3141 31.314C37.5623 25.0658 37.5619 14.9351 31.3134 8.68658C25.0648 2.43803 14.9342 2.43779 8.68597 8.68596C2.43779 14.9342 2.43802 25.0647 8.6866 31.3133C14.9352 37.5619 25.0658 37.5623 31.3141 31.314ZM23.914 25.5293H20.6442V13.2439H19.4352V26.7419H20.6469V26.7337H23.9167L23.914 25.5293ZM23.9325 20.5083H32.069L32.0681 20.5419C31.7892 26.89 26.5212 31.9501 20.0723 31.9501C13.4408 31.9501 8.06466 26.6012 8.06466 20.0051C8.06466 13.4092 13.4418 8.06121 20.0723 8.06121C20.2636 8.06121 20.4546 8.06543 20.6454 8.07387V6.87765C20.4546 6.86976 20.263 6.86586 20.0704 6.86586C12.7751 6.86586 6.86118 12.7443 6.86118 20.0051C6.86118 27.266 12.7769 33.1453 20.0714 33.1453C27.3658 33.1453 33.2807 27.2633 33.2807 20.0061C33.2807 19.7699 33.2743 19.5365 33.2615 19.303H23.9325V20.5083ZM15.146 16.8805C15.5109 16.8787 15.8669 16.7688 16.1694 16.5648C16.4719 16.3609 16.7072 16.0718 16.8455 15.7342C16.9839 15.3967 17.0192 15.0257 16.9469 14.6681C16.8747 14.3105 16.698 13.9824 16.4394 13.725C16.1808 13.4677 15.8518 13.2927 15.4938 13.2222C15.1359 13.1517 14.7651 13.1888 14.4282 13.3288C14.0913 13.4689 13.8035 13.7055 13.601 14.0089C13.3984 14.3124 13.2904 14.669 13.2904 15.0339C13.291 15.277 13.3394 15.5175 13.433 15.742C13.5266 15.9663 13.6635 16.17 13.8358 16.3415C14.0081 16.513 14.2125 16.6488 14.4373 16.7413C14.6621 16.8337 14.9029 16.881 15.146 16.8805Z" fill="black"/>
</svg>
