<svg width="40" height="40" viewBox="0 0 40 40" fill="none" xmlns="http://www.w3.org/2000/svg">
<path d="M17.3088 8C14.8325 8 12.317 9.09153 9.09336 11.5461V8.62379H3V32H9.48655V17.4675C12.3168 15.2469 13.6132 14.545 14.6751 14.545C15.9322 14.545 16.7582 15.3247 16.7582 17.2725V32H23.2432V17.4285C26.0735 15.2468 27.3322 14.545 28.4319 14.545C29.6905 14.545 30.5149 15.3247 30.5149 17.2725V32H37V15.013C37 9.75294 33.973 8 31.0641 8C28.5877 8 26.072 9.01354 22.7697 11.5071C21.7108 8.89508 19.3919 8 17.3088 8Z" fill="black"/>
</svg>
