<svg width="40" height="40" viewBox="0 0 40 40" fill="none" xmlns="http://www.w3.org/2000/svg">
<path fill-rule="evenodd" clip-rule="evenodd" d="M17.8242 5.01339C18.0497 5.01339 18.2686 5.00989 18.4828 5.00647C18.8976 4.99986 19.2947 4.99352 19.6873 5.01339C19.7157 5.01484 19.7422 5.02264 19.7697 5.02924C19.8904 5.05826 20.0089 5.0745 20.1287 5.09089C20.1964 5.10016 20.2645 5.10949 20.3335 5.12122C20.5866 5.16414 20.8282 5.24785 21.0692 5.33128C21.1592 5.36242 21.2491 5.39355 21.3393 5.42248C21.3738 5.43353 21.4084 5.44424 21.4431 5.45477C21.4795 5.46585 21.5159 5.47672 21.5524 5.48761L21.5531 5.48777C21.6237 5.50886 21.6945 5.52997 21.7647 5.55249C21.946 5.61064 22.1177 5.70633 22.2862 5.80024C22.3523 5.83713 22.418 5.87373 22.4835 5.90768C23.5356 6.45246 24.5817 7.24277 25.3425 8.13708C25.4811 8.29993 25.6152 8.46633 25.7492 8.63272C25.8836 8.79955 26.018 8.96638 26.157 9.12967C26.275 9.26842 26.3695 9.42476 26.472 9.5943C26.5306 9.69121 26.5918 9.79242 26.6615 9.89713L25.6393 8.75547L25.0457 8.31149C23.9475 7.3477 22.5686 6.76344 21.1514 6.52292C20.9394 6.48692 20.7146 6.49315 20.4943 6.49928C20.4112 6.50159 20.3287 6.50387 20.2478 6.50387C20.178 6.50387 20.1067 6.50185 20.0349 6.4998C19.8465 6.49445 19.654 6.48899 19.4729 6.51974C19.2827 6.55203 19.0933 6.5996 18.9048 6.64693C18.8368 6.66401 18.769 6.68105 18.7013 6.69732C18.3303 6.78653 17.8778 6.89691 17.5406 7.07154C17.3877 7.15071 17.225 7.20813 17.0723 7.28718C16.5373 7.56425 16.0307 7.90789 15.5621 8.27661C15.5156 8.31312 15.4709 8.35571 15.424 8.40036C15.3306 8.48929 15.2286 8.58644 15.0872 8.66034C13.9838 9.62847 12.4881 11.8956 12.0535 13.2904C12.1782 13.2904 12.5221 13.2191 12.7723 13.1672C12.8761 13.1457 12.9638 13.1275 13.0131 13.1191C13.0822 13.1074 13.1522 13.103 13.2223 13.0985C13.2925 13.0941 13.3627 13.0896 13.4319 13.0779C13.5421 13.0592 13.6512 13.036 13.7603 13.0128C13.828 12.9984 13.8956 12.9841 13.9634 12.9708C14.0049 12.9627 14.0464 12.9549 14.0881 12.9479C14.2036 12.9283 14.3194 12.9115 14.4355 12.8957C14.4864 12.8887 14.5374 12.8819 14.5884 12.8751C14.7558 12.8527 14.9235 12.8303 15.0905 12.802C15.3624 12.7559 15.6932 12.7402 15.9854 12.7264L16.126 12.7195C16.1823 12.7167 16.2366 12.7023 16.2909 12.6878C16.3451 12.6734 16.3994 12.659 16.4557 12.6561C16.5598 12.6508 16.6643 12.6535 16.7689 12.6561C16.8735 12.6588 16.978 12.6614 17.0822 12.6561C17.1149 12.6545 17.1469 12.6497 17.1787 12.6435C17.2673 12.6261 17.3537 12.5973 17.4449 12.5927C17.8546 12.572 18.269 12.5785 18.7057 12.5854C18.9326 12.589 19.1655 12.5927 19.407 12.5927V12.6561C18.6378 12.6561 17.9886 12.7485 17.2999 12.8654C17.1852 12.8849 17.034 12.8957 16.8825 12.9065C16.7305 12.9173 16.5782 12.9282 16.4623 12.9479L16.4345 12.9526C15.2362 13.1559 13.9256 13.3784 12.7756 13.747C12.7191 13.7652 12.6619 13.7815 12.6044 13.7969C12.5413 13.8138 12.4777 13.8296 12.4135 13.8456C12.1808 13.9034 11.9404 13.9632 11.6908 14.0832C11.6908 14.2772 11.6028 14.5064 11.5224 14.7161L11.5219 14.7171C11.4693 14.8544 11.4199 14.9833 11.4006 15.0885C11.3918 15.1362 11.3834 15.1844 11.3749 15.233L11.3735 15.2408C11.3333 15.4705 11.2919 15.7065 11.2159 15.9257C11.1883 16.0052 11.1572 16.089 11.1329 16.1728C11.1213 16.2132 11.1111 16.2536 11.1038 16.2936C10.773 18.099 10.7002 19.8152 10.8004 21.6466C10.8031 21.6953 10.821 21.7967 10.8437 21.9121C10.9319 22.3588 10.9559 22.8113 11.0379 23.2576C11.056 23.3561 11.1165 23.6121 11.1864 23.9072L11.1866 23.9083C11.3091 24.4259 11.4599 25.0632 11.4599 25.1826L11.4929 25.2143C11.6047 25.1863 12.0222 24.6477 12.2657 24.3335L12.2664 24.3327L12.2669 24.3319C12.3405 24.237 12.398 24.1628 12.4262 24.1297L12.6422 23.8759C12.7509 23.7484 12.8596 23.6209 12.9685 23.4934L13.0995 23.34C13.3456 23.0516 13.5918 22.7631 13.8375 22.4743C13.9316 22.3636 14.0696 22.2213 14.2186 22.0677L14.2193 22.067C14.4984 21.7792 14.8159 21.4519 14.9553 21.2185L15.318 20.9331L16.1424 20.0134L19.1102 17.2227L21.8142 15.0028C21.8921 14.9387 22.2809 14.666 22.6989 14.3728C23.1621 14.048 23.6611 13.6981 23.8125 13.579C23.8464 13.5523 23.885 13.5313 23.9235 13.5104C23.9619 13.4896 24 13.4688 24.0334 13.4426C24.6891 12.9266 26.3245 11.9634 27.0935 11.5652C27.31 11.4531 27.5311 11.3496 27.7521 11.2461C27.9728 11.1428 28.1934 11.0395 28.4092 10.9278C28.7978 10.7266 29.5168 10.4975 30.0071 10.3413L30.1568 10.2935C30.2815 10.2536 31.0746 10.0935 31.1956 10.0874C31.3048 10.0819 31.4154 10.0837 31.5256 10.0856C31.5807 10.0865 31.6355 10.0874 31.6902 10.0874C31.7373 10.0874 31.7858 10.0856 31.8349 10.0838C31.9505 10.0796 32.069 10.0752 32.1782 10.0937C33.5562 10.3276 33.7159 11.3503 33.6522 12.5134C33.6376 12.7807 33.5243 13.103 33.4298 13.3717C33.4178 13.4058 33.4062 13.439 33.395 13.4711C33.3724 13.5364 33.3517 13.6023 33.3319 13.6685C33.3187 13.7126 33.3058 13.7568 33.2929 13.8009L33.2917 13.8049C33.2598 13.9141 33.2279 14.0232 33.1906 14.1308C32.9743 14.7548 32.6076 15.4393 32.2837 16.0177C32.232 16.11 32.1847 16.2045 32.1373 16.2991L32.1357 16.3025C32.0876 16.3986 32.0395 16.4947 31.987 16.5885C31.025 18.3067 29.3416 20.4802 28.0497 21.9986C27.84 22.2452 27.6226 22.4858 27.4052 22.7263C27.1877 22.9669 26.9703 23.2076 26.7605 23.4542C26.7031 23.5216 26.6014 23.6243 26.4879 23.739L26.487 23.7398L26.4866 23.7402C26.274 23.9549 26.0199 24.2115 25.936 24.3581L24.4522 25.7851C24.3616 25.901 24.3057 25.9962 24.1554 26.0705L24.1384 26.0949C24.08 26.1788 24.0385 26.2384 23.9245 26.2925C24.0932 26.1213 24.2389 25.9456 24.3763 25.7801C24.4243 25.7222 24.4714 25.6655 24.5181 25.6107C24.5866 25.5301 24.6678 25.4595 24.7489 25.3888C24.8301 25.3181 24.9112 25.2473 24.9798 25.1667C25.0735 25.0566 25.1705 24.9492 25.2688 24.8428C25.331 24.7755 25.3937 24.7086 25.4563 24.6418C25.6181 24.4692 25.7799 24.2967 25.9327 24.117C27.0966 22.7491 28.7527 20.7567 29.6128 19.2206C29.677 19.1059 29.7502 18.9956 29.8234 18.8851C29.8479 18.8482 29.8724 18.8112 29.8966 18.7741C29.9448 18.7 29.9918 18.6252 30.0349 18.5483C30.0949 18.4412 30.1503 18.3319 30.2059 18.2225C30.2616 18.1127 30.3174 18.0028 30.3778 17.895C30.6036 17.4918 30.8576 16.9674 31.0076 16.5346C31.0247 16.4854 31.0367 16.4347 31.0488 16.3839C31.0609 16.3332 31.0731 16.2825 31.0901 16.2333C31.1086 16.1798 31.133 16.1284 31.1574 16.077C31.182 16.0252 31.2065 15.9734 31.2252 15.9193C31.2664 15.8007 31.2626 15.6844 31.2846 15.5642C31.3854 15.0146 31.4572 14.6206 31.3538 14.0578C31.3486 14.0292 31.3452 14.0006 31.3418 13.9721C31.3354 13.9188 31.3291 13.8658 31.311 13.8136C31.2493 13.6357 31.1684 13.5471 31.087 13.4582C31.0275 13.393 30.9677 13.3277 30.9153 13.2269C30.8441 13.1791 30.7681 13.1462 30.7044 13.1187C30.6733 13.1053 30.6451 13.0931 30.6218 13.0811C29.6935 12.6004 28.1951 13.0909 27.288 13.4648C27.231 13.4883 27.1735 13.5112 27.1157 13.5338C27.0582 13.5562 27.0004 13.5785 26.9425 13.6007L26.9411 13.6013C26.6919 13.6972 26.441 13.7937 26.2065 13.9151C25.161 14.4565 23.3132 15.4969 22.4176 16.2016C22.299 16.2949 22.172 16.3783 22.045 16.4616C21.918 16.545 21.7909 16.6284 21.6724 16.7217C21.5865 16.7892 21.4998 16.8558 21.4126 16.9218C21.2845 17.0187 21.1553 17.1144 21.0261 17.2101C20.8089 17.3708 20.5918 17.5316 20.3798 17.6984C20.3077 17.7551 20.1871 17.857 20.0467 17.9755L20.046 17.9762C19.7173 18.2538 19.2814 18.6222 19.1102 18.7132L18.4507 19.284L17.3295 20.3623C17.2301 20.4581 17.0764 20.5939 16.9042 20.746C16.4945 21.1079 15.9804 21.5619 15.8456 21.7893C15.7252 21.8764 15.6262 21.9302 15.5489 22.0747L15.1862 22.3602C14.9599 22.5902 14.7684 22.8284 14.5893 23.0388C14.4712 23.1777 14.3414 23.3073 14.2115 23.437C14.0818 23.5665 13.9522 23.6961 13.8341 23.8348C13.7358 23.9504 13.6372 24.0656 13.5385 24.1809L13.523 24.1992C12.9849 24.8281 12.4441 25.4603 11.9216 26.1657L11.9546 26.1974C12.1357 26.2534 12.3093 26.2908 12.4755 26.3266C12.6364 26.3613 12.7902 26.3944 12.9372 26.4416C13.9624 26.7702 15.4404 27.0212 16.5282 27.2058C16.6813 27.2318 16.835 27.2504 16.9887 27.2691L16.9899 27.2692C17.144 27.2879 17.2981 27.3066 17.4516 27.3327C17.5285 27.3457 17.6079 27.3429 17.6871 27.3401C17.7386 27.3383 17.7901 27.3365 17.8406 27.339C17.9526 27.3447 18.0621 27.3657 18.1715 27.3867C18.2805 27.4077 18.3893 27.4286 18.5002 27.4342C18.555 27.4369 18.61 27.4356 18.665 27.4342C18.7201 27.4328 18.7751 27.4314 18.8299 27.4342C18.8651 27.436 18.8998 27.4407 18.9341 27.4468C18.9499 27.4496 18.9656 27.4527 18.9813 27.456C18.9969 27.4592 19.0124 27.4626 19.028 27.4659C19.0931 27.4801 19.1582 27.4942 19.2256 27.4976C19.3681 27.5048 19.5118 27.4904 19.6543 27.4976C19.7163 27.5007 19.776 27.515 19.8357 27.5293C19.8954 27.5436 19.9551 27.5579 20.017 27.561C20.5415 27.5876 23.2846 27.5876 23.8091 27.561C23.8711 27.5579 23.9307 27.5436 23.9904 27.5293C24.0501 27.515 24.1099 27.5007 24.1718 27.4976C24.2443 27.4939 24.3171 27.4937 24.3898 27.4948C24.4325 27.4954 24.4754 27.4965 24.5182 27.4976C24.6337 27.5005 24.7492 27.5034 24.8643 27.4976C24.9265 27.4945 24.9866 27.4803 25.0466 27.4662C25.0965 27.4545 25.1463 27.4428 25.1974 27.4373C25.327 27.4235 25.4597 27.4408 25.5898 27.4342C25.7648 27.4253 25.9363 27.3865 26.1071 27.3479C26.2029 27.3262 26.2985 27.3046 26.3944 27.2883C26.4584 27.2774 26.6339 27.2654 26.8237 27.2523C27.0468 27.237 27.2895 27.2203 27.3936 27.2027C27.6121 27.1656 27.8285 27.1167 28.0449 27.0679C28.2612 27.019 28.4776 26.9702 28.6961 26.9331C28.743 26.9252 28.7904 26.926 28.8379 26.9268C28.8853 26.9276 28.9328 26.9284 28.9796 26.9204C29.0626 26.9063 29.1421 26.8794 29.2216 26.8524C29.3013 26.8253 29.381 26.7982 29.4644 26.7841C30.4609 26.615 31.4349 26.3026 32.3956 25.9945L32.475 25.9691C32.5938 25.931 32.7101 25.881 32.8264 25.8311L32.8271 25.8308C32.9432 25.7809 33.0592 25.731 33.1774 25.6932C33.6401 25.5448 34.0918 25.3343 34.5195 25.1128C34.6001 25.071 34.6813 25.03 34.7626 24.9893C34.8222 24.9595 34.8818 24.9299 34.9415 24.9003C35.0827 24.8303 35.2238 24.7603 35.3636 24.6879C35.4477 24.6443 35.5255 24.5906 35.6032 24.537L35.6036 24.5366C35.681 24.4832 35.7583 24.4298 35.8418 24.3866C36.1167 24.2442 36.3764 24.0524 36.6167 23.8633C37.4895 23.1766 38.0307 22.6517 38.5722 21.6847C38.6283 21.5844 38.661 21.473 38.6936 21.3626C38.7085 21.3118 38.7233 21.2613 38.7403 21.2122C38.7561 21.1666 38.7749 21.1201 38.7943 21.0718C38.8576 20.9153 38.9283 20.7403 38.9283 20.5208H38.9942C38.9942 20.626 38.9958 20.7238 38.9974 20.8166C39.0002 20.9889 39.0026 21.1442 38.9942 21.2978C38.9886 21.401 38.9577 21.5036 38.9269 21.6057C38.9059 21.6756 38.8849 21.7452 38.8722 21.8147C38.7769 22.3343 38.3858 23.1335 38.0346 23.5462C37.8867 23.7201 37.7327 23.8933 37.5763 24.1361C37.4753 24.2017 37.407 24.2381 37.3455 24.3581C37.1501 24.5275 36.9685 24.6705 36.8014 24.802C35.8903 25.5189 35.1118 25.9917 34.0776 26.5272C34.0578 26.5374 34.0373 26.5464 34.0166 26.5548C33.9949 26.5635 33.9728 26.5715 33.9507 26.5795C33.9278 26.5878 33.9049 26.5961 33.8824 26.6052C33.8624 26.6133 33.8427 26.622 33.8237 26.6318C33.5826 26.7567 33.3348 26.8752 33.0751 26.9585C32.9416 27.0013 32.8037 27.0613 32.6613 27.1233C32.5089 27.1896 32.3514 27.2582 32.1881 27.3105C32.1289 27.3295 32.0725 27.3566 32.0163 27.3836C31.9601 27.4106 31.9041 27.4375 31.8452 27.4564C31.6094 27.532 31.3732 27.6072 31.1371 27.6823C30.9024 27.757 30.6678 27.8317 30.4338 27.9067C30.0901 28.0169 28.4211 28.4386 28.0794 28.4966C27.9901 28.5117 27.8982 28.5068 27.8091 28.5219C27.7383 28.5339 27.6706 28.5557 27.6029 28.5774C27.5352 28.5992 27.4675 28.6209 27.3968 28.6329C27.3399 28.6426 27.282 28.6417 27.2241 28.6408C27.166 28.6399 27.1079 28.639 27.0506 28.6488C27.0253 28.6531 26.9889 28.6607 26.9447 28.6707C26.8812 28.685 26.8013 28.7041 26.7151 28.7247C26.5189 28.7716 26.2891 28.8265 26.1405 28.8517C26.0684 28.864 25.9953 28.8624 25.9223 28.8609C25.8773 28.8599 25.8323 28.859 25.7877 28.8612C25.6973 28.8658 25.6094 28.9064 25.5206 28.9215C25.3938 28.943 25.2637 28.952 25.1335 28.9611C25.0032 28.9701 24.8728 28.9792 24.7456 29.0008C24.6906 29.0101 24.6366 29.0218 24.5827 29.0335C24.4802 29.0557 24.3783 29.0778 24.2708 29.0832C24.1648 29.0886 24.0597 29.078 23.9542 29.0959C23.9201 29.1017 23.8869 29.1094 23.8538 29.117C23.7959 29.1303 23.7384 29.1436 23.6772 29.1467C23.5458 29.1533 23.4137 29.15 23.2816 29.1467C23.1495 29.1433 23.0174 29.14 22.8858 29.1467C22.8296 29.1495 22.7753 29.1639 22.721 29.1784C22.6913 29.1863 22.6615 29.1942 22.6314 29.2002C22.6066 29.2051 22.5815 29.2088 22.5561 29.2101C22.4465 29.2156 22.3365 29.2129 22.2264 29.2101C22.1163 29.2073 22.0062 29.2045 21.8966 29.2101C21.8347 29.2132 21.7749 29.2275 21.7152 29.2418C21.6555 29.2561 21.5958 29.2704 21.5339 29.2735C21.0063 29.3002 19.0277 29.3002 18.5002 29.2735C18.3763 29.2672 18.2614 29.2164 18.1374 29.2101C18.0223 29.2043 17.9068 29.2072 17.7912 29.2101C17.6757 29.213 17.5601 29.2159 17.4449 29.2101C17.404 29.208 17.3642 29.1998 17.3247 29.19C17.3098 29.1863 17.295 29.1823 17.2801 29.1784C17.2523 29.171 17.2244 29.1636 17.1963 29.1577C17.1696 29.1522 17.1427 29.148 17.1152 29.1467C16.9837 29.14 16.8516 29.1433 16.7195 29.1467C16.6448 29.1485 16.57 29.1504 16.4954 29.1505C16.4381 29.1506 16.3809 29.1495 16.3238 29.1467C16.2825 29.1446 14.9705 28.9916 14.9124 28.9818C14.8666 28.974 14.8034 28.9622 14.7325 28.949C14.5404 28.9132 14.2918 28.8669 14.1804 28.8612C14.1402 28.8592 14.0999 28.8599 14.0597 28.8606C13.993 28.8618 13.9266 28.8629 13.8606 28.8517C13.7756 28.8373 13.6931 28.8155 13.6079 28.793C13.4425 28.7492 13.2669 28.7027 13.0427 28.7027C13.0951 28.7645 13.2261 28.9678 13.3703 29.1916C13.5477 29.4669 13.7451 29.7732 13.8408 29.8856C14.5644 30.7361 15.0396 31.2585 15.9347 31.9627C16.553 32.4492 17.3609 32.8322 18.111 33.0727C18.1751 33.0932 18.2396 33.1149 18.3044 33.1366C18.523 33.21 18.7459 33.2849 18.9717 33.3232C19.0324 33.3335 19.0941 33.3345 19.1557 33.3363C19.2066 33.3379 19.2576 33.34 19.308 33.3486C19.3308 33.3524 19.3531 33.3577 19.3753 33.3637C19.3964 33.3693 19.4172 33.3756 19.4381 33.3818C19.4811 33.3947 19.5241 33.4076 19.5686 33.4152C19.7528 33.4464 19.9512 33.4397 20.145 33.4332L20.2219 33.4307C20.2753 33.4291 20.328 33.4279 20.3798 33.4279C20.4466 33.4279 20.5138 33.429 20.5812 33.4301C20.7122 33.4323 20.8435 33.4344 20.9733 33.4279C21.212 33.4158 21.6173 33.3206 21.857 33.2629C23.1653 32.9484 24.0629 32.4325 25.0952 31.6202C25.5566 31.2572 26.1968 30.6737 26.5296 30.1297H26.5955C26.4561 30.5382 25.271 31.8951 24.9468 32.2069C24.8771 32.2739 24.8082 32.3437 24.7391 32.4138C24.5876 32.5674 24.4345 32.7225 24.2675 32.8539C22.9463 33.8934 21.619 34.6222 19.9115 34.912C19.8481 34.9228 19.7834 34.9209 19.7188 34.919C19.6652 34.9174 19.6115 34.9159 19.5587 34.9215C19.5313 34.9244 19.5044 34.9299 19.4778 34.9363C19.4594 34.9408 19.4413 34.9457 19.4231 34.9506C19.3883 34.96 19.3534 34.9694 19.3179 34.9754C19.0708 35.0174 18.6447 34.9958 18.3811 34.9824L18.3682 34.9818C18.312 34.9789 18.2577 34.9645 18.2033 34.9501C18.1491 34.9356 18.0948 34.9212 18.0385 34.9183C17.9938 34.9161 17.9489 34.917 17.9039 34.918C17.8309 34.9195 17.7578 34.9211 17.6857 34.9088C17.3288 34.8483 16.5766 34.6505 16.2249 34.5378C16.1717 34.5207 16.1178 34.4907 16.0661 34.462C16.0461 34.4509 16.0264 34.4399 16.0073 34.43C15.9505 34.4006 15.8887 34.3827 15.8269 34.3647C15.7894 34.3538 15.7519 34.343 15.7156 34.3295C15.6924 34.3209 15.6697 34.3113 15.6478 34.2999C15.6139 34.2824 15.5799 34.265 15.5457 34.2477C15.4571 34.2028 15.3674 34.1585 15.2774 34.1141C14.865 33.9103 14.4464 33.7034 14.0881 33.4215L14.0059 33.3562C13.7878 33.1826 13.2881 32.7847 13.1747 32.7302C12.1592 31.836 11.1813 30.5631 10.5498 29.4352C10.4908 29.3297 10.4378 29.2197 10.3826 29.1049L10.3821 29.1042C10.3113 28.9572 10.2368 28.8024 10.141 28.6393C9.91468 28.8486 9.7734 29.1061 9.64264 29.3443L9.63382 29.3603C9.61705 29.391 9.60036 29.4213 9.58367 29.4511C9.49394 29.6113 9.40081 29.7706 9.30745 29.9301L9.30675 29.9311C9.00936 30.4389 8.71042 30.9496 8.5186 31.5029C8.48807 31.591 8.44742 31.6751 8.40669 31.7592C8.36588 31.8435 8.32507 31.928 8.29431 32.0166C8.25327 32.135 8.22267 32.2566 8.19206 32.3782C8.16146 32.4998 8.13085 32.6214 8.08989 32.7397C8.01485 32.9563 7.95341 33.1666 7.91183 33.393C7.83817 33.7945 7.95024 34.5113 8.19539 34.9183C7.59372 34.4319 7.43165 33.827 7.46998 33.1266C7.47377 33.0568 7.48529 32.9894 7.49765 32.917L7.49788 32.916C7.51597 32.8094 7.53591 32.6919 7.53591 32.5399L7.60183 32.5716C7.60183 32.2771 7.67155 32.0812 7.74783 31.8666C7.75841 31.8368 7.76916 31.8065 7.7799 31.7756C7.80154 31.7132 7.8146 31.6485 7.82766 31.5838C7.8408 31.519 7.85394 31.4543 7.87558 31.3919C7.9269 31.2439 8.19299 30.5758 8.25807 30.4596C8.33659 30.3193 8.40313 30.1732 8.4696 30.0272L8.47006 30.0263C8.53622 29.8811 8.6023 29.7361 8.68012 29.597L9.07258 28.8961C9.11176 28.8261 9.1664 28.7403 9.22622 28.6462C9.37461 28.4131 9.5553 28.1292 9.61334 27.9099C9.59217 27.9048 9.53753 27.8896 9.46612 27.8692C9.24299 27.8055 8.85587 27.6913 8.81537 27.6784C8.75648 27.6595 8.70037 27.6326 8.64426 27.6056C8.588 27.5786 8.53166 27.5515 8.47238 27.5325C6.03843 26.7522 2.85287 25.22 1.58717 22.9595C1.37556 22.5815 1.2029 22.176 1.12554 21.7545C1.11302 21.6861 1.09122 21.6201 1.06943 21.5542C1.04763 21.4885 1.02592 21.4229 1.0134 21.3549C0.987738 21.2151 1.00683 21.059 1.00683 20.9172C1.00683 19.9452 1.37679 19.1388 1.92683 18.3454C2.04918 18.1689 2.45995 17.6288 2.68856 17.5081C2.7061 17.4896 2.72326 17.4713 2.74019 17.4531L2.79406 17.3955C2.93271 17.2465 3.05737 17.1127 3.19965 17.0007C3.99013 16.3788 4.83262 15.8429 5.73214 15.3771C5.88841 15.2962 6.05033 15.2263 6.21216 15.1565C6.374 15.0868 6.53576 15.017 6.69172 14.9362C6.90348 14.8266 7.39672 14.6554 7.87736 14.4885L7.87828 14.4882C8.40576 14.3051 8.91793 14.1273 9.02636 14.042C9.07691 14.0022 9.20219 13.5759 9.28573 13.2914L9.28596 13.2909C9.31726 13.1843 9.34269 13.0977 9.35614 13.0589C9.42121 12.8711 9.50283 12.6879 9.58452 12.5044C9.66652 12.3202 9.74867 12.1356 9.81452 11.9457C10.0526 11.2588 11.1401 9.48205 11.6314 8.90452C11.6461 8.88729 11.6646 8.866 11.6861 8.84145C11.7078 8.81678 11.7325 8.78883 11.7593 8.75845C11.9566 8.53497 12.2705 8.1795 12.3503 8.02607C13.5891 6.70987 15.1536 5.6515 16.9107 5.22903C16.9628 5.2165 17.0133 5.199 17.0637 5.18151C17.1292 5.15879 17.1947 5.13608 17.2636 5.12437C17.3051 5.11733 17.3468 5.11148 17.3897 5.10546C17.5159 5.08773 17.6525 5.06854 17.8242 5.01339ZM6.41241 23.2997C6.24331 23.1379 6.07065 22.9394 5.91121 22.7328C5.70046 22.4691 5.50933 22.1859 5.37601 21.9479C5.19771 21.6293 4.88447 20.9884 4.86492 20.6318C4.85457 20.4427 4.86492 20.2504 4.86492 20.061C4.86492 19.8891 4.84042 19.6977 4.87149 19.5282C4.95936 19.0496 5.1355 18.6114 5.37369 18.2076C5.82458 17.4059 6.51203 16.7343 7.24918 16.15C7.46913 15.9756 8.12637 15.5264 8.36596 15.4014C8.38914 15.3893 8.41271 15.378 8.43783 15.3657C8.46504 15.3524 8.49402 15.3378 8.52632 15.3196C8.55051 15.306 8.57656 15.2904 8.60508 15.2718C8.62625 15.2579 8.64882 15.2424 8.67301 15.2248H8.77426C8.77426 15.4138 8.68994 15.7733 8.62193 16.0633L8.62169 16.0638C8.59055 16.1965 8.56288 16.3147 8.5482 16.3952C8.3318 17.5834 8.25791 18.8396 8.25922 20.0468C8.26077 21.4387 8.44061 22.8464 8.68986 24.215C8.70238 24.2836 8.72356 24.3588 8.7462 24.4391C8.7911 24.5986 8.84173 24.7784 8.84173 24.9669C8.75231 24.8915 8.55577 24.7876 8.35684 24.6824C8.16161 24.5792 7.96407 24.4748 7.86321 24.3948C7.75478 24.3089 7.63932 24.2313 7.52385 24.1538L7.52107 24.152C7.40561 24.0745 7.29014 23.9969 7.18171 23.911C7.16594 23.8985 7.14724 23.8831 7.12622 23.8655C6.94182 23.7111 6.57772 23.3847 6.41241 23.2997Z" fill="black"/>
</svg>
