<svg width="40" height="40" viewBox="0 0 40 40" fill="none" xmlns="http://www.w3.org/2000/svg">
<path d="M25.5407 33.8673L13.8526 22.8746C13.7958 22.8253 13.726 22.7936 13.6517 22.783C13.5773 22.7725 13.5014 22.7837 13.4333 22.8152C13.3651 22.8467 13.3074 22.8973 13.2673 22.9608C13.2271 23.0243 13.2061 23.098 13.2068 23.1731V33.4575C13.2071 33.5285 13.1933 33.5988 13.1664 33.6645C13.1395 33.7302 13.0999 33.7899 13.0499 33.8403C12.9999 33.8907 12.9405 33.9307 12.875 33.9581C12.8095 33.9855 12.7393 33.9997 12.6683 34H6.54236C6.4714 34.0003 6.40107 33.9865 6.33541 33.9596C6.26974 33.9327 6.21002 33.8931 6.15966 33.8431C6.1093 33.793 6.06928 33.7336 6.04188 33.6681C6.01449 33.6026 6.00026 33.5324 6 33.4614V6.54256C6.00023 6.43779 6.03079 6.33532 6.08798 6.24754C6.14517 6.15976 6.22655 6.09042 6.32229 6.04791C6.41802 6.00539 6.52402 5.99152 6.62747 6.00796C6.73092 6.0244 6.82739 6.07045 6.90524 6.14056L31.1419 29.2559C31.2197 29.326 31.3162 29.3721 31.4196 29.3885C31.5231 29.405 31.6291 29.3911 31.7248 29.3486C31.8205 29.3061 31.9019 29.2367 31.9591 29.1489C32.0163 29.0612 32.0469 28.9587 32.0471 28.8539V8.50966C32.0474 8.43835 32.0335 8.36768 32.0063 8.30175C31.9792 8.23581 31.9392 8.1759 31.8888 8.12547C31.8384 8.07504 31.7785 8.03509 31.7126 8.00792C31.6467 7.98075 31.576 7.96689 31.5047 7.96715H29.3587C29.2162 7.96869 29.0802 8.02666 28.9803 8.12834C28.8805 8.23003 28.825 8.36715 28.8261 8.50966V21.1534C28.8259 21.2581 28.7953 21.3606 28.7381 21.4484C28.6809 21.5362 28.5995 21.6055 28.5038 21.648C28.4081 21.6905 28.3021 21.7044 28.1986 21.688C28.0952 21.6715 27.9987 21.6255 27.9208 21.5554C27.9208 21.5554 15.9713 9.95181 12.4381 6.68112C12.3797 6.62878 12.3383 6.56004 12.3195 6.48386C12.3007 6.40767 12.3053 6.32759 12.3327 6.25405C12.3601 6.18052 12.409 6.11694 12.473 6.07163C12.5371 6.02632 12.6133 6.00138 12.6917 6.00005H14.2193C14.3527 5.99828 14.4823 6.04471 14.5842 6.1308L26.2333 17.0591C26.2725 17.0922 26.3178 17.1173 26.3666 17.1328C26.4155 17.1484 26.467 17.1541 26.5181 17.1498C26.5692 17.1454 26.6189 17.1311 26.6644 17.1075C26.71 17.0839 26.7504 17.0515 26.7834 17.0123C26.8419 16.9429 26.8743 16.8552 26.8751 16.7645V6.54256C26.8751 6.40002 26.9312 6.2632 27.0312 6.16168C27.1313 6.06016 27.2672 6.0021 27.4097 6.00005H33.4576C33.5289 5.99979 33.5996 6.01365 33.6655 6.04082C33.7314 6.06799 33.7913 6.10794 33.8417 6.15837C33.8921 6.2088 33.9321 6.26871 33.9592 6.33465C33.9864 6.40058 34.0003 6.47125 34 6.54256V33.4575C33.9998 33.5623 33.9692 33.6647 33.912 33.7525C33.8548 33.8403 33.7734 33.9096 33.6777 33.9521C33.582 33.9947 33.476 34.0085 33.3725 33.9921C33.2691 33.9756 33.1726 33.9296 33.0948 33.8595L8.82302 10.629C8.74517 10.5589 8.6487 10.5128 8.54525 10.4964C8.4418 10.4799 8.3358 10.4938 8.24007 10.5363C8.14433 10.5788 8.06295 10.6482 8.00576 10.736C7.94857 10.8237 7.91801 10.9262 7.91778 11.031V31.5099C7.91752 31.5812 7.93138 31.6519 7.95854 31.7178C7.98571 31.7838 8.02565 31.8437 8.07606 31.8941C8.12648 31.9445 8.18637 31.9845 8.25229 32.0116C8.31821 32.0388 8.38885 32.0527 8.46014 32.0524H10.7154C10.7867 32.054 10.8576 32.0414 10.924 32.0154C10.9905 31.9894 11.0511 31.9505 11.1024 31.901C11.1537 31.8515 11.1947 31.7923 11.2231 31.7269C11.2514 31.6614 11.2665 31.591 11.2676 31.5197V18.8955C11.2687 18.7922 11.2992 18.6914 11.3556 18.6049C11.4121 18.5184 11.492 18.4498 11.586 18.4072C11.6801 18.3645 11.7843 18.3497 11.8865 18.3642C11.9888 18.3788 12.0847 18.4223 12.163 18.4896C12.163 18.4896 24.1321 30.0424 27.6809 33.3209C27.7379 33.3743 27.7776 33.4436 27.7948 33.5199C27.812 33.5962 27.8059 33.6758 27.7774 33.7486C27.7488 33.8213 27.699 33.8838 27.6345 33.928C27.57 33.9721 27.4937 33.9958 27.4155 33.9961H25.8997C25.7683 33.9984 25.6406 33.9526 25.5407 33.8673Z" fill="black"/>
</svg>
