<svg width="40" height="40" viewBox="0 0 40 40" fill="none" xmlns="http://www.w3.org/2000/svg">
<path fill-rule="evenodd" clip-rule="evenodd" d="M20.2536 16.7213C18.9744 14.0561 16.0989 12.5325 12.7066 12.5325C9.57633 12.5325 7.17057 14.666 6 15.9591V9.5538C6 7.59107 7.50294 6 9.3569 6H30.6431C32.4971 6 34 7.59107 34 9.5538V21.1829C33.6713 21.1833 33.351 21.3616 33.1711 21.6822C33.1711 21.6822 31.1816 25.1778 26.8987 25.1778C24.945 25.1778 22.8335 24.3465 21.7321 22.671C22.6367 22.0948 23.2364 21.0894 23.2364 19.9464C23.2364 18.2556 21.9241 16.8659 20.2536 16.7213ZM31.6398 8.42247H28.028V12.0403H31.6398V8.42247ZM23.4268 17.5802L27.835 13.2097L26.9463 12.2051L22.538 16.5755L23.4268 17.5802ZM19.7663 23.178C21.1058 25.8217 24.0771 27.2195 26.8987 27.2195C30.5425 27.2195 32.865 25.1994 34 23.8678V30.4464C34 32.409 32.4971 34 30.6431 34H9.3569C7.50294 34 6 32.409 6 30.4464V18.539C6.30045 18.5387 6.59649 18.3903 6.78441 18.112C6.78441 18.112 9.14004 14.574 12.7066 14.574C15.0771 14.574 17.1754 15.4842 18.2583 17.1851C17.3208 17.7547 16.695 18.7788 16.695 19.9464C16.695 21.667 18.0538 23.0758 19.7663 23.178ZM12.0523 27.8996H8.44049V31.5172H12.0523V27.8996ZM13.0611 27.7752L17.4693 23.4046L16.5806 22.4L12.1724 26.7706L13.0611 27.7752Z" fill="black"/>
</svg>
