<svg width="40" height="40" viewBox="0 0 40 40" fill="none" xmlns="http://www.w3.org/2000/svg">
<path fill-rule="evenodd" clip-rule="evenodd" d="M39.9178 31C39.9719 30.3948 40 29.7824 40 29.163C40 28.5506 39.9725 27.9448 39.9196 27.3466H29.489L37.4536 19.317C36.8657 18.2597 36.1855 17.2616 35.4244 16.3333L35.3563 16.2647L22.5525 29.173L24.3642 31H39.9178ZM15.6254 31L17.4375 29.173L4.63374 16.2647L4.62433 16.2742C3.84207 17.2208 3.14433 18.2414 2.54281 19.3235L10.5004 27.3466H0.0804047C0.0270019 27.9448 0 28.5506 0 29.163C0 29.7824 0.027576 30.3948 0.0821527 31H15.6254ZM7.21525 13.6621L7.19591 13.681L19.9997 26.5899L32.8042 13.681L32.7848 13.6621C31.8492 12.8764 30.8411 12.1753 29.773 11.5707L21.8119 19.5962V9.08165C21.2151 9.02781 20.6106 9 19.9997 9C19.3894 9 18.7849 9.02781 18.1881 9.08165V19.5962L10.227 11.5707C9.15833 12.1753 8.15068 12.8764 7.21525 13.6621Z" fill="black"/>
</svg>
