<svg width="40" height="40" viewBox="0 0 40 40" fill="none" xmlns="http://www.w3.org/2000/svg">
<path fill-rule="evenodd" clip-rule="evenodd" d="M31.3216 9.40437H40V11.8816C37.4449 11.8816 32.4581 11.7131 30.2699 12.0851C29.7248 12.1777 29.1936 12.3644 28.7087 12.616C26.6288 13.6949 26.7298 16.9843 28.7639 18.0394C29.5675 18.4563 30.5754 18.648 31.4822 18.6939C33.9816 18.8209 36.5076 18.7383 39.1277 18.7383V21.2599C36.4925 21.2599 33.9277 21.1753 31.3903 21.304C30.1828 21.3652 28.6357 21.6254 27.9971 22.7682C27.7681 23.1778 27.6175 23.5861 27.5332 24.0466C27.3458 25.0701 27.4643 29.1159 27.4643 30.5495H24.5255V26.6346C24.5255 24.7035 24.3768 22.6638 25.9031 21.1935C26.1644 20.9417 26.439 20.6908 26.7664 20.5209C27.1083 20.3438 27.4848 20.0622 27.9695 19.9769C25.8485 19.1936 24.6563 17.9844 24.2684 15.8674C24.1846 15.4102 24.1702 14.9342 24.2547 14.4739C24.4268 13.5334 24.6752 12.6319 25.3199 11.8727C26.7341 10.2077 29.0106 9.44872 31.3216 9.40437ZM19.0154 18.6498H21.9541V21.2599H19.0154V18.6498ZM7.07137 9.00613C8.43616 9.00613 9.7136 8.952 10.9698 9.16556C13.8689 9.65841 16.3452 11.6287 16.8704 14.496C16.976 15.0725 16.9899 15.6545 16.9899 16.3495H14.0969C14.0969 12.7558 11.9155 11.572 8.56364 11.572C8.2133 11.572 7.85752 11.5543 7.50765 11.572C5.03091 11.6976 3.2152 13.1175 3.35189 15.6197C3.50322 18.388 6.47668 18.2516 8.60968 18.2516C9.52993 18.2516 10.4476 18.2493 11.3648 18.2959C11.5926 18.3075 11.8166 18.3596 12.0397 18.3976C12.3917 18.4574 12.7534 18.4647 13.096 18.5745C13.4158 18.6773 13.795 18.7433 14.0922 18.8975C15.5637 19.6608 16.6322 20.5407 17.178 22.118C17.6139 23.3775 17.65 24.8679 17.2102 26.139C15.9429 29.8016 12.4689 30.9918 8.74732 30.9918C8.38186 30.9918 8.01051 31.0102 7.64529 30.9918C7.19012 30.9688 6.73731 30.8688 6.29088 30.7928C2.35303 30.1232 0 27.1211 0 23.2063H3.07639C3.07639 26.6835 5.24858 28.4261 8.65548 28.4261C10.283 28.4261 11.8738 28.1537 13.1557 27.1432C13.8566 26.5907 14.2787 25.6273 14.4322 24.7899C14.5056 24.3889 14.4822 23.9452 14.4093 23.5467C14.096 21.8376 12.8053 21.3206 11.1627 21.1448C7.96612 20.8025 3.91566 21.808 1.39123 18.8356C0.606496 17.9113 0.275506 16.7039 0.275506 15.5312C0.275506 12.4722 2.06903 10.3928 5.02336 9.44417C5.58193 9.26472 6.36879 9.05048 7.07137 9.00613ZM19.0154 27.9394H21.9541V30.5495H19.0154V27.9394Z" fill="black"/>
</svg>
