<svg width="362" height="119" viewBox="0 0 362 119" fill="none" xmlns="http://www.w3.org/2000/svg">
<path d="M116.522 118.393C114.478 118.393 112.279 118.208 109.763 117.831C107.326 117.446 104.967 116.972 102.844 116.403C100.643 115.84 98.993 115.218 97.8137 114.56C97.1061 114.175 96.5546 113.775 96.1615 113.346C95.847 112.924 95.6885 112.185 95.6885 111.149L94.9023 88.8234C94.9023 86.9291 95.5313 85.9817 96.8678 85.9817C97.9685 85.9817 98.7565 86.8328 99.1496 88.5347L100.485 93.9441C103.945 107.493 110.312 114.271 119.667 114.271C124.699 114.271 128.709 112.688 131.696 109.513C134.684 106.331 136.177 101.854 136.177 96.0751C136.177 90.4809 134.606 85.2639 131.54 80.4318C128.474 75.5997 123.521 70.8122 116.839 66.069C109.37 61.0519 103.945 56.1902 100.485 51.4987C97.1049 46.8072 95.3753 41.8049 95.3753 36.4993C95.3753 29.4842 97.9685 23.8677 103.157 19.6498C108.346 15.4319 114.952 13.3228 122.972 13.3228C126.038 13.3228 128.946 13.656 131.776 14.3146C134.606 14.9806 136.887 15.9275 138.695 17.1632C139.324 17.5406 139.793 17.9698 140.108 18.4434C140.501 18.917 140.661 19.5313 140.661 20.2861L141.131 41.7604C141.131 43.3736 140.502 44.1726 139.165 44.1726C138.222 44.1726 137.593 43.5141 137.2 42.1821L136.177 38.6303C133.897 31.3341 131.62 25.9987 129.261 22.6318C126.902 19.2723 123.522 17.5852 119.041 17.5852C114.717 17.5852 111.256 18.9171 108.74 21.5663C106.146 24.2228 104.889 27.9673 104.889 32.7993C104.889 36.8766 106.303 40.7614 109.133 44.4613C111.885 48.1538 116.839 52.6603 123.914 57.966C131.462 63.7527 136.965 69.3174 140.424 74.6749C143.883 80.0323 145.691 85.7449 145.691 91.8054C145.691 97.1185 144.432 101.758 141.917 105.739C139.401 109.72 135.942 112.828 131.54 115.056C127.137 117.283 122.104 118.393 116.522 118.393Z" fill="black"/>
<path d="M176.009 118.393C171.606 118.393 167.598 117.002 164.06 114.205C160.443 111.408 157.611 107.397 155.488 102.188C153.366 96.971 152.344 90.7622 152.344 83.5622C152.344 75.5037 153.603 68.4888 156.198 62.5171C158.714 56.5454 162.252 51.9279 166.655 48.6572C171.136 45.3865 176.009 43.7512 181.512 43.7512C186.151 43.7512 189.768 44.6022 192.362 46.3115C193.384 46.9701 193.855 48.0137 193.855 49.4344L194.171 66.7868C194.171 68.2076 193.542 68.9182 192.362 68.9182C191.262 68.9182 190.555 68.2966 190.24 67.0683C188.825 61.8514 187.486 57.8258 186.15 54.9843C184.892 52.1354 183.477 50.1744 182.062 49.0792C180.647 47.9915 179.154 47.4439 177.425 47.4439C175.381 47.4439 173.337 48.539 171.135 50.7146C168.934 52.8975 167.124 56.4271 165.709 61.311C164.215 66.1875 163.51 72.6107 163.51 80.573C163.51 90.7181 164.923 98.3473 167.674 103.468C170.426 108.589 174.045 111.149 178.447 111.149C181.985 111.149 184.97 109.773 187.329 107.02C189.687 104.274 191.734 99.2944 193.385 92.0944C193.699 91.051 194.326 90.5255 195.191 90.5255C196.449 90.5255 196.921 91.4802 196.606 93.3745C195.506 100.005 193.935 105.148 191.969 108.803C190.004 112.451 187.723 114.96 185.05 116.336C182.377 117.712 179.39 118.393 176.009 118.393Z" fill="black"/>
<path d="M228.313 118.393C223.438 118.393 219.114 116.884 215.341 113.85C211.488 110.816 208.423 106.524 206.143 100.981C203.863 95.4315 202.762 89.0084 202.762 81.7122C202.762 74.2236 203.943 67.6378 206.223 61.9473C208.581 56.2642 211.724 51.8095 215.734 48.5832C219.822 45.3568 224.304 43.7512 229.179 43.7512C235.154 43.7512 239.948 46.045 243.643 50.6477C247.338 55.243 249.147 62.7096 249.147 73.0398C249.147 76.1699 247.888 77.7312 245.372 77.7312H216.677C214.632 77.7312 213.612 78.8189 213.612 81.0019C213.612 91.0508 215.184 98.5841 218.329 103.609C221.473 108.633 225.404 111.149 230.278 111.149C234.052 111.149 237.198 109.869 239.636 107.308C242.073 104.748 244.038 100.434 245.532 94.366C245.846 93.3226 246.475 92.8047 247.497 92.8047C248.677 92.8047 249.148 93.7518 248.833 95.6461C247.261 104.082 244.666 109.987 241.128 113.346C237.59 116.713 233.344 118.393 228.313 118.393ZM216.207 74.1794H231.457C236.332 74.1794 238.69 71.8042 238.69 67.0683C238.69 60.9042 237.903 56.0721 236.331 52.5645C234.68 49.057 232.245 47.303 229.022 47.303C225.091 47.303 221.789 49.4344 219.195 53.7041C216.522 57.9664 214.711 64.0342 213.925 71.9002C213.768 73.4172 214.477 74.1794 216.207 74.1794Z" fill="black"/>
<path d="M340.285 118.393C335.411 118.393 331.087 116.884 327.313 113.85C323.461 110.816 320.396 106.524 318.116 100.981C315.914 95.4315 314.734 89.0084 314.734 81.7122C314.734 74.2236 315.915 67.6378 318.195 61.9473C320.554 56.2642 323.697 51.8095 327.706 48.5832C331.795 45.3568 336.277 43.7512 341.151 43.7512C347.126 43.7512 351.921 46.045 355.616 50.6477C359.311 55.243 361.119 62.7096 361.119 73.0398C361.119 76.1699 359.861 77.7312 357.345 77.7312H328.649C326.605 77.7312 325.664 78.8189 325.664 81.0019C325.664 91.0508 327.157 98.5841 330.301 103.609C333.446 108.633 337.376 111.149 342.251 111.149C346.103 111.149 349.171 109.869 351.608 107.308C354.045 104.748 356.011 100.434 357.505 94.366C357.819 93.3226 358.448 92.8047 359.47 92.8047C360.649 92.8047 361.12 93.7518 360.806 95.6461C359.234 104.082 356.639 109.987 353.101 113.346C349.563 116.713 345.317 118.393 340.285 118.393ZM328.179 74.1794H343.43C348.304 74.1794 350.662 71.8042 350.662 67.0683C350.662 60.9042 349.876 56.0721 348.304 52.5645C346.653 49.057 344.216 47.303 341.071 47.303C337.141 47.303 333.84 49.4344 331.167 53.7041C328.494 57.9664 326.762 64.0342 325.898 71.9002C325.74 73.4172 326.45 74.1794 328.179 74.1794Z" fill="black"/>
<path fill-rule="evenodd" clip-rule="evenodd" d="M267.907 66.762V107.927C267.907 109.918 268.222 111.338 268.93 112.197C269.559 113.048 270.895 113.566 273.018 113.758L277.105 114.187C278.206 114.372 278.757 114.898 278.757 115.749C278.757 116.888 278.049 117.451 276.555 117.451H251.004C249.511 117.451 248.723 116.933 248.723 115.889C248.723 115.038 249.352 114.469 250.688 114.187L252.497 113.899C254.62 113.521 256.035 112.929 256.664 112.123C257.293 111.316 257.607 109.918 257.607 107.927V66.0292C257.607 60.0353 260.202 54.2782 264.683 50.0455C269.164 45.8054 275.297 43.4229 281.666 43.4229C288.034 43.4229 294.164 45.8054 298.645 50.0455C303.127 54.2782 305.644 60.0353 305.644 66.0292V107.927C305.644 109.918 306.038 111.316 306.667 112.123C307.296 112.929 308.708 113.47 310.831 113.758L314.136 114.187C315.236 114.372 315.785 114.942 315.785 115.889C315.785 116.933 315.155 117.451 313.976 117.451H288.585C287.169 117.451 286.459 116.933 286.459 115.889C286.459 114.942 287.012 114.372 288.191 114.187L290.234 113.899C292.356 113.617 293.772 113.048 294.401 112.197C295.109 111.338 295.424 109.918 295.424 107.927V60.7015C295.424 53.5607 289.213 47.7666 281.666 47.7666C274.04 47.7666 267.907 53.5607 267.907 60.7015V66.5694C267.907 66.636 267.907 66.6954 267.907 66.762Z" fill="black"/>
<path d="M42.5392 118.378C46.9921 118.378 50.6018 114.766 50.6018 110.311C50.6018 105.856 46.9921 102.245 42.5392 102.245C38.0862 102.245 34.4766 105.856 34.4766 110.311C34.4766 114.766 38.0862 118.378 42.5392 118.378Z" fill="#FF9D00"/>
<path fill-rule="evenodd" clip-rule="evenodd" d="M76.0038 45.7449C70.4298 37.8774 57.1039 46.2116 49.1829 50.5685C40.2194 55.4985 17.9933 64.2707 9.9377 49.1544C4.68876 39.3015 9.79068 28.8722 17.249 23.5922C23.0338 19.4926 26.9824 16.7939 30.5369 14.3325C31.5051 13.6614 34.4314 12.8358 36.4018 14.4039C38.2126 15.8406 38.5011 17.7876 38.5508 18.1281C38.599 18.4355 38.8756 20.3017 37.5541 21.8862C36.8017 22.7921 36.7452 22.7421 35.6802 23.2456C34.3143 23.8937 29.5519 25.9208 25.0888 28.188C17.3764 32.1135 9.38229 39.8795 14.2155 47.1352C19.6646 55.3129 34.3624 45.0882 46.1351 39.6384C61.0673 31.9991 74.5482 32.7242 80.7831 44.1162C86.3318 54.2527 81.8155 63.8141 73.7956 68.3934C72.0281 69.4047 52.8853 80.069 51.5973 80.8762C47.0778 83.7055 43.7494 85.5844 43.7472 90.1333C43.7491 90.7541 43.7494 92.8431 43.7483 94.3548C43.7484 94.7969 43.5728 95.219 43.2601 95.5308C42.9495 95.8462 42.525 96.0185 42.0855 96.0198C41.6439 96.0173 41.2219 95.8433 40.9099 95.5328C40.598 95.2223 40.4235 94.7983 40.4234 94.3563C40.4227 93.4044 40.4234 92.0194 40.4224 90.1348C40.422 85.9809 40.7998 78.1541 51.4377 71.2706C54.9935 68.9688 68.3472 61.3668 70.1588 60.3106C75.4279 57.2426 79.3163 50.4197 76.0038 45.7449Z" fill="#FF9D00"/>
</svg>
