<svg width="54" height="54" viewBox="0 0 54 54" fill="none" xmlns="http://www.w3.org/2000/svg">
<path fill-rule="evenodd" clip-rule="evenodd" d="M27 0.5C27.2761 0.5 27.5 0.723858 27.5 1V22.0906C27.5 25.0781 29.9219 27.5 32.9094 27.5H53C53.2761 27.5 53.5 27.7239 53.5 28C53.5 28.2761 53.2761 28.5 53 28.5H32.9094C29.9219 28.5 27.5 30.9219 27.5 33.9094V53C27.5 53.2761 27.2761 53.5 27 53.5C26.7239 53.5 26.5 53.2761 26.5 53V33.9094C26.5 30.9219 24.0781 28.5 21.0906 28.5H1C0.723858 28.5 0.5 28.2761 0.5 28C0.5 27.7239 0.723858 27.5 1 27.5H21.0906C24.0781 27.5 26.5 25.0781 26.5 22.0906V1C26.5 0.723858 26.7239 0.5 27 0.5ZM27 24.5767C26.3511 26.1173 25.1173 27.3511 23.5767 28C25.1173 28.6489 26.3511 29.8827 27 31.4233C27.6489 29.8827 28.8827 28.6489 30.4233 28C28.8827 27.3511 27.6489 26.1173 27 24.5767Z" fill="#C6C6C6"/>
</svg>
